<?xml version="1.0" encoding="UTF-8"?>
<!DOCTYPE svg PUBLIC "-//W3C//DTD SVG 1.1//EN" "http://www.w3.org/Graphics/SVG/1.1/DTD/svg11.dtd">
<!-- Creator: CorelDRAW X7 -->
<svg xmlns="http://www.w3.org/2000/svg" xml:space="preserve" width="55mm" height="40mm" version="1.1" style="shape-rendering:geometricPrecision; text-rendering:geometricPrecision; image-rendering:optimizeQuality; fill-rule:evenodd; clip-rule:evenodd;"
viewBox="0 0 5500 4000"
 xmlns:xlink="http://www.w3.org/1999/xlink">
 <defs>
  <style type="text/css">
   <![CDATA[
    .fil1 {fill:#000000}
    .fil0 {fill:#000000}
   ]]>
  </style>
 </defs>
 <g id="Layer_x0020_1">
  <metadata id="CorelCorpID_0Corel-Layer"/>
  <path class="fil0" d="M2767 2519l0 -886c0,-77 32,-116 96,-116 62,0 93,28 93,85 0,62 -40,93 -122,93l0 355 62 1c155,0 270,-37 347,-114 84,-82 126,-190 126,-323 0,-137 -47,-252 -141,-344 -93,-93 -209,-139 -347,-139 -76,0 -150,15 -221,47 -125,57 -177,131 -300,203 -244,143 -479,236 -724,359 -17,9 141,97 157,108 164,109 558,371 572,572l0 99 402 0z"/>
  <path class="fil1" d="M3862 897l0 1833c0,48 -39,86 -86,86l-1743 0c-47,0 -86,-38 -86,-86l0 -698c-51,-43 -109,-68 -160,-75l0 927c0,55 45,100 100,100l2035 0c55,0 100,-45 100,-100l0 -2141c0,-55 -45,-100 -100,-100l-2035 0c-55,0 -100,45 -100,100l0 826c50,-3 107,-24 160,-62l0 -610c0,-47 39,-86 86,-86l1743 0c47,0 86,39 86,86z"/>
  <path id="paper-plane.svg" class="fil0" d="M3701 1017l-255 147c-21,12 -19,43 4,52l70 29 0 52c0,28 36,40 53,17l27 -36 68 28c4,2 7,3 11,3 5,0 10,-2 15,-4 7,-5 13,-12 14,-21l37 -237c3,-25 -23,-42 -44,-30l0 0zm-152 280l0 -40 23 10 -23 30zm130 -18l-94 -39 86 -123c6,-10 -6,-21 -15,-13l-129 112 -66 -27 255 -147 -37 237z"/>
 </g>
</svg>
