<?xml version="1.0" encoding="UTF-8"?>
<!DOCTYPE svg PUBLIC "-//W3C//DTD SVG 1.1//EN" "http://www.w3.org/Graphics/SVG/1.1/DTD/svg11.dtd">
<!-- Creator: CorelDRAW X7 -->
<svg xmlns="http://www.w3.org/2000/svg" xml:space="preserve" width="42.3332mm" height="50.8mm" version="1.1" style="shape-rendering:geometricPrecision; text-rendering:geometricPrecision; image-rendering:optimizeQuality; fill-rule:evenodd; clip-rule:evenodd"
viewBox="0 0 4233 5080"
 xmlns:xlink="http://www.w3.org/1999/xlink">
 <defs>
  <style type="text/css">
   <![CDATA[
    .fil0 {fill:none}
    .fil1 {fill:black;fill-opacity:0.019608}
   ]]>
  </style>
 </defs>
 <g id="Layer_x0020_1">
  <metadata id="CorelCorpID_0Corel-Layer"/>
  <polygon class="fil0" points="0,0 4233,0 4233,5080 0,5080 "/>
  <g id="_404569504">
   <g>
    <path id="facebook.svg" class="fil1" d="M339 168c0,-78 -63,-141 -142,-141 -78,0 -141,63 -141,141 0,71 51,130 119,140l0 -99 -36 0 0 -41 36 0 0 -31c0,-35 21,-55 54,-55 15,0 32,3 32,3l0 35 -18 0c-18,0 -23,11 -23,22l0 26 39 0 -6 41 -33 0 0 99c67,-10 119,-69 119,-140z"/>
    <path id="twitter.svg" class="fil1" d="M632 116c0,2 0,5 0,8 0,82 -63,177 -178,177 -35,0 -68,-10 -96,-28 5,1 10,1 15,1 29,0 56,-10 78,-27 -28,0 -51,-18 -59,-43 4,1 8,1 12,1 6,0 11,-1 17,-2 -29,-6 -50,-31 -50,-61l0 -1c8,5 18,7 28,8 -17,-11 -28,-31 -28,-52 0,-12 3,-23 8,-32 31,38 77,63 129,66 -1,-5 -1,-10 -1,-15 0,-34 28,-62 62,-62 18,0 35,7 46,20 14,-3 28,-8 40,-16 -5,15 -15,27 -28,35 13,-1 25,-5 36,-10 -8,13 -19,24 -31,33l0 0z"/>
    <path id="instagram.svg" class="fil1" d="M864 96c-40,0 -72,32 -72,72 0,41 32,73 72,73 41,0 73,-32 73,-73 0,-40 -32,-72 -73,-72zm0 120c-26,0 -47,-22 -47,-48 0,-26 21,-47 47,-47 26,0 48,21 48,47 0,26 -22,48 -48,48zm93 -123c0,9 -8,17 -17,17 -9,0 -17,-8 -17,-17 0,-10 8,-17 17,-17 9,0 17,7 17,17zm48 17c-1,-23 -6,-43 -23,-60 -16,-16 -37,-21 -59,-22 -24,-2 -94,-2 -117,0 -23,1 -43,6 -60,22 -16,17 -22,37 -23,60 -1,23 -1,93 0,117 1,23 7,43 23,59 17,17 37,22 60,23 23,2 93,2 117,0 22,-1 43,-6 59,-23 17,-16 22,-36 23,-59 1,-24 1,-94 0,-117zm-30 142c-5,12 -15,22 -27,27 -19,7 -63,6 -84,6 -20,0 -65,1 -83,-6 -13,-5 -22,-15 -27,-27 -8,-19 -6,-63 -6,-84 0,-20 -2,-65 6,-83 5,-13 14,-22 27,-27 18,-8 63,-6 83,-6 21,0 65,-2 84,6 12,5 22,14 27,27 7,18 6,63 6,83 0,21 1,65 -6,84z"/>
    <path id="linkedin.svg" class="fil1" d="M1345 27l-245 0c-11,0 -20,9 -20,20l0 245c0,11 9,20 20,20l245 0c11,0 20,-9 20,-20l0 -245c0,-11 -9,-20 -20,-20zm-179 244l-42 0 0 -136 42 0 0 136 0 0zm-21 -155c-14,0 -25,-11 -25,-24 0,-14 11,-25 25,-25 13,0 24,11 24,25 0,13 -11,24 -24,24zm180 155l-43 0 0 -66c0,-16 0,-36 -22,-36 -22,0 -25,17 -25,35l0 67 -43 0 0 -136 41 0 0 19 1 0c5,-11 19,-22 40,-22 43,0 51,28 51,65l0 74z"/>
   </g>
   <g>
    <path id="facebook.svg_0" class="fil1" d="M1733 169c0,-78 -63,-141 -141,-141 -79,0 -142,63 -142,141 0,71 52,130 120,140l0 -99 -37 0 0 -41 37 0 0 -31c0,-35 21,-55 53,-55 16,0 32,3 32,3l0 35 -18 0c-18,0 -23,11 -23,22l0 26 39 0 -6 41 -33 0 0 99c68,-10 119,-69 119,-140z"/>
    <path id="twitter.svg_1" class="fil1" d="M2026 117c0,2 0,5 0,8 0,82 -63,177 -178,177 -35,0 -68,-10 -96,-28 6,1 10,1 16,1 29,0 56,-10 77,-27 -27,0 -50,-18 -58,-43 4,1 7,1 12,1 5,0 11,-1 16,-2 -29,-6 -50,-31 -50,-61l0 -1c8,5 18,7 28,8 -17,-11 -28,-31 -28,-52 0,-12 3,-23 9,-32 31,38 77,63 129,66 -1,-5 -2,-10 -2,-15 0,-34 28,-62 63,-62 18,0 34,7 45,20 14,-3 28,-8 40,-16 -5,15 -15,27 -28,35 13,-1 25,-5 36,-10 -8,13 -19,24 -31,33l0 0z"/>
    <path id="instagram.svg_2" class="fil1" d="M2259 97c-41,0 -73,32 -73,72 0,41 32,73 73,73 40,0 72,-32 72,-73 0,-40 -32,-72 -72,-72zm0 120c-26,0 -48,-22 -48,-48 0,-26 21,-47 48,-47 26,0 47,21 47,47 0,26 -21,48 -47,48zm92 -123c0,9 -7,17 -17,17 -9,0 -17,-8 -17,-17 0,-10 8,-17 17,-17 10,0 17,7 17,17zm48 17c-1,-23 -6,-43 -23,-60 -16,-16 -36,-21 -59,-22 -23,-2 -94,-2 -117,0 -23,1 -43,6 -59,22 -17,17 -22,37 -23,60 -2,23 -2,93 0,117 1,23 6,43 23,59 16,17 36,22 59,23 23,2 94,2 117,0 23,-1 43,-6 59,-23 17,-16 22,-36 23,-59 2,-24 2,-94 0,-117zm-30 142c-5,12 -14,22 -27,27 -19,7 -63,6 -83,6 -21,0 -65,1 -84,-6 -12,-5 -22,-15 -27,-27 -7,-19 -6,-63 -6,-84 0,-20 -1,-65 6,-83 5,-13 14,-22 27,-27 19,-8 63,-6 84,-6 20,0 65,-2 83,6 13,5 22,14 27,27 8,18 6,63 6,83 0,21 2,65 -6,84z"/>
    <path id="linkedin.svg_3" class="fil1" d="M2739 28l-245 0c-11,0 -20,9 -20,20l0 245c0,11 9,20 20,20l245 0c11,0 21,-9 21,-20l0 -245c0,-11 -10,-20 -21,-20zm-179 244l-42 0 0 -136 42 0 0 136 0 0zm-21 -155c-14,0 -25,-11 -25,-24 0,-14 11,-25 25,-25 14,0 25,11 25,25 0,13 -11,24 -25,24zm180 155l-42 0 0 -66c0,-16 -1,-36 -22,-36 -23,0 -26,17 -26,35l0 67 -42 0 0 -136 40 0 0 19 1 0c6,-11 19,-22 40,-22 43,0 51,28 51,65l0 74z"/>
   </g>
   <g>
    <path id="facebook.svg_4" class="fil1" d="M3128 170c0,-78 -64,-141 -142,-141 -78,0 -142,63 -142,141 0,71 52,130 120,140l0 -99 -36 0 0 -41 36 0 0 -31c0,-35 21,-55 53,-55 16,0 32,3 32,3l0 35 -18 0c-17,0 -23,11 -23,22l0 26 39 0 -6 41 -33 0 0 99c68,-10 120,-69 120,-140z"/>
    <path id="twitter.svg_5" class="fil1" d="M3420 118c1,2 1,5 1,8 0,82 -63,177 -178,177 -36,0 -69,-10 -96,-28 5,1 10,1 15,1 29,0 56,-10 77,-26 -27,-1 -50,-19 -58,-44 4,1 8,1 12,1 5,0 11,-1 16,-2 -28,-6 -50,-31 -50,-61l0 -1c8,5 18,7 28,8 -16,-11 -27,-31 -27,-52 0,-12 3,-22 8,-32 31,38 77,63 129,66 -1,-5 -2,-10 -2,-15 0,-34 28,-62 63,-62 18,0 34,7 46,20 14,-3 27,-8 39,-16 -4,15 -14,27 -27,35 12,-1 25,-5 36,-10 -9,13 -19,24 -32,33l0 0z"/>
    <path id="instagram.svg_6" class="fil1" d="M3653 98c-40,0 -73,32 -73,72 0,41 33,73 73,73 40,0 73,-32 73,-73 0,-40 -33,-72 -73,-72zm0 120c-26,0 -47,-22 -47,-48 0,-26 21,-47 47,-47 26,0 47,21 47,47 0,26 -21,48 -47,48zm93 -123c0,9 -8,17 -17,17 -10,0 -17,-8 -17,-17 0,-10 7,-17 17,-17 9,0 17,7 17,17zm48 17c-1,-23 -7,-43 -23,-60 -17,-16 -37,-21 -60,-22 -23,-2 -93,-2 -117,0 -22,1 -42,6 -59,22 -17,17 -22,37 -23,60 -1,23 -1,93 0,117 1,23 6,43 23,59 17,17 37,22 59,23 24,2 94,2 117,0 23,-1 43,-6 60,-23 16,-16 22,-36 23,-59 1,-24 1,-94 0,-117zm-31 142c-5,12 -14,22 -27,27 -18,7 -63,6 -83,6 -21,0 -65,1 -84,-6 -12,-5 -22,-15 -27,-27 -7,-19 -5,-63 -5,-84 0,-20 -2,-65 5,-83 5,-13 15,-22 27,-27 19,-8 63,-6 84,-6 20,0 65,-2 83,6 13,5 22,14 27,27 8,18 6,63 6,83 0,21 2,65 -6,84z"/>
    <path id="linkedin.svg_7" class="fil1" d="M4133 29l-244 0c-12,0 -21,9 -21,20l0 245c0,11 9,20 21,20l244 0c12,0 21,-9 21,-20l0 -245c0,-11 -9,-20 -21,-20zm-179 244l-42 0 0 -136 43 0 0 136 -1 0zm-21 -155c-13,0 -24,-11 -24,-24 0,-14 11,-25 24,-25 14,0 25,11 25,25 0,13 -11,24 -25,24zm180 155l-42 0 0 -66c0,-16 0,-36 -22,-36 -22,0 -26,17 -26,35l0 67 -42 0 0 -136 41 0 0 19 0 0c6,-11 20,-22 40,-22 43,0 51,28 51,65l0 74z"/>
   </g>
  </g>
  <g id="_404568064">
   <g>
    <path id="facebook.svg_8" class="fil1" d="M339 532c0,-79 -63,-142 -142,-142 -78,0 -142,63 -142,142 0,70 52,129 120,140l0 -99 -36 0 0 -41 36 0 0 -32c0,-35 21,-55 54,-55 15,0 31,3 31,3l0 35 -17 0c-18,0 -24,11 -24,22l0 27 40 0 -7 41 -33 0 0 99c68,-11 120,-70 120,-140z"/>
    <path id="twitter.svg_9" class="fil1" d="M632 479c0,2 0,5 0,8 0,83 -63,178 -178,178 -35,0 -68,-11 -96,-28 5,0 10,0 15,0 29,0 56,-9 78,-26 -28,-1 -51,-19 -59,-44 4,1 8,1 12,1 6,0 11,0 17,-2 -29,-6 -51,-31 -51,-61l0 -1c9,5 18,8 29,8 -17,-11 -28,-30 -28,-52 0,-12 3,-22 8,-32 31,38 77,63 129,66 -1,-5 -1,-10 -1,-14 0,-35 28,-63 62,-63 18,0 34,8 46,20 14,-3 28,-8 40,-15 -5,14 -15,26 -28,34 13,-1 25,-5 36,-10 -8,13 -19,24 -31,33l0 0z"/>
    <path id="instagram.svg_10" class="fil1" d="M864 459c-40,0 -73,32 -73,73 0,40 33,72 73,72 40,0 73,-32 73,-72 0,-41 -33,-73 -73,-73zm0 120c-26,0 -47,-21 -47,-47 0,-26 21,-48 47,-48 26,0 47,22 47,48 0,26 -21,47 -47,47zm93 -123c0,9 -8,17 -17,17 -10,0 -17,-8 -17,-17 0,-9 7,-17 17,-17 9,0 17,8 17,17zm48 17c-1,-23 -6,-43 -23,-59 -17,-17 -37,-22 -59,-23 -24,-2 -94,-2 -117,0 -23,1 -43,6 -60,23 -16,16 -22,36 -23,59 -1,24 -1,94 0,117 1,23 7,43 23,60 17,16 37,21 60,22 23,2 93,2 117,0 22,-1 42,-6 59,-22 17,-17 22,-37 23,-60 1,-23 1,-93 0,-117zm-30 142c-5,13 -15,22 -27,27 -19,8 -63,6 -84,6 -20,0 -65,2 -83,-6 -13,-5 -22,-14 -27,-27 -8,-18 -6,-63 -6,-83 0,-21 -2,-65 6,-84 4,-12 14,-22 27,-27 18,-7 63,-6 83,-6 21,0 65,-1 84,6 12,5 22,15 27,27 7,19 5,63 5,84 0,20 2,65 -5,83z"/>
    <path id="linkedin.svg_11" class="fil1" d="M1345 390l-245 0c-11,0 -21,9 -21,20l0 245c0,11 10,20 21,20l245 0c11,0 20,-9 20,-20l0 -245c0,-11 -9,-20 -20,-20zm-179 245l-43 0 0 -137 43 0 0 137 0 0zm-21 -155c-14,0 -25,-11 -25,-25 0,-13 11,-24 25,-24 13,0 24,11 24,24 0,14 -11,25 -24,25zm179 155l-42 0 0 -67c0,-15 0,-36 -22,-36 -22,0 -25,17 -25,35l0 68 -43 0 0 -137 41 0 0 19 1 0c5,-11 19,-22 40,-22 43,0 50,28 50,65l0 75z"/>
   </g>
   <g>
    <path id="facebook.svg_12" class="fil1" d="M1733 533c0,-79 -63,-142 -141,-142 -79,0 -142,63 -142,142 0,70 52,129 119,140l0 -99 -36 0 0 -41 36 0 0 -32c0,-35 22,-55 54,-55 15,0 32,3 32,3l0 35 -18 0c-18,0 -23,11 -23,22l0 27 39 0 -6 41 -33 0 0 99c68,-11 119,-70 119,-140z"/>
    <path id="twitter.svg_13" class="fil1" d="M2026 480c0,2 0,5 0,8 0,83 -63,178 -178,178 -35,0 -68,-11 -96,-28 5,0 10,0 15,0 30,0 57,-9 78,-26 -27,-1 -50,-19 -58,-44 3,1 7,1 11,1 6,0 12,0 17,-2 -29,-6 -50,-31 -50,-61l0 -1c8,5 18,8 28,8 -17,-11 -28,-30 -28,-52 0,-12 3,-22 9,-32 30,38 77,63 129,66 -1,-5 -2,-10 -2,-14 0,-35 28,-63 62,-63 18,0 35,8 46,20 14,-3 28,-8 40,-15 -5,14 -15,26 -28,34 13,-1 25,-5 36,-10 -8,13 -19,24 -31,33l0 0z"/>
    <path id="instagram.svg_14" class="fil1" d="M2258 460c-40,0 -72,32 -72,73 0,40 32,72 72,72 41,0 73,-32 73,-72 0,-41 -32,-73 -73,-73zm0 120c-26,0 -47,-21 -47,-47 0,-26 21,-48 47,-48 27,0 48,22 48,48 0,26 -22,47 -48,47zm93 -123c0,9 -7,17 -17,17 -9,0 -17,-8 -17,-17 0,-9 8,-17 17,-17 10,0 17,8 17,17zm48 17c-1,-23 -6,-43 -23,-59 -16,-17 -36,-22 -59,-23 -23,-2 -94,-2 -117,0 -23,1 -43,6 -60,23 -16,16 -21,36 -22,59 -2,24 -2,94 0,117 1,23 6,43 22,60 17,16 37,21 60,22 23,2 94,2 117,0 23,-1 43,-6 59,-22 17,-17 22,-37 23,-60 2,-23 2,-93 0,-117zm-30 142c-5,13 -14,22 -27,27 -19,8 -63,6 -84,6 -20,0 -65,2 -83,-6 -13,-5 -22,-14 -27,-27 -8,-18 -6,-63 -6,-83 0,-21 -1,-65 6,-84 5,-12 14,-22 27,-27 19,-7 63,-6 83,-6 21,0 65,-1 84,6 12,5 22,15 27,27 7,19 6,63 6,84 0,20 1,65 -6,83z"/>
    <path id="linkedin.svg_15" class="fil1" d="M2739 391l-245 0c-11,0 -20,9 -20,20l0 245c0,11 9,20 20,20l245 0c11,0 20,-9 20,-20l0 -245c0,-11 -9,-20 -20,-20zm-179 245l-42 0 0 -137 42 0 0 137 0 0zm-21 -155c-14,0 -25,-11 -25,-25 0,-13 11,-24 25,-24 13,0 24,11 24,24 0,14 -11,25 -24,25zm180 155l-43 0 0 -67c0,-15 0,-36 -22,-36 -22,0 -25,17 -25,35l0 68 -42 0 0 -137 40 0 0 19 1 0c6,-11 19,-22 40,-22 43,0 51,28 51,65l0 75z"/>
   </g>
   <g>
    <path id="facebook.svg_16" class="fil1" d="M3128 534c0,-79 -64,-142 -142,-142 -78,0 -142,63 -142,142 0,70 52,129 120,140l0 -99 -36 0 0 -41 36 0 0 -32c0,-35 21,-55 53,-55 16,0 32,3 32,3l0 35 -18 0c-17,0 -23,11 -23,22l0 27 39 0 -6 41 -33 0 0 99c68,-11 120,-70 120,-140z"/>
    <path id="twitter.svg_17" class="fil1" d="M3420 481c0,2 0,5 0,8 0,83 -62,178 -177,178 -36,0 -69,-11 -96,-28 5,0 10,0 15,0 29,0 56,-9 77,-26 -27,-1 -50,-19 -58,-44 4,1 8,1 12,1 5,0 11,0 16,-2 -28,-6 -50,-31 -50,-61l0 -1c8,5 18,8 28,8 -17,-11 -28,-30 -28,-52 0,-12 4,-22 9,-32 31,38 77,63 129,66 -1,-5 -2,-10 -2,-14 0,-35 28,-63 63,-63 18,0 34,8 45,20 15,-3 28,-8 40,-15 -5,14 -14,26 -27,34 12,-1 24,-5 36,-10 -9,13 -20,24 -32,33l0 0z"/>
    <path id="instagram.svg_18" class="fil1" d="M3653 461c-41,0 -73,32 -73,73 0,40 32,72 73,72 40,0 72,-32 72,-72 0,-41 -32,-73 -72,-73zm0 120c-26,0 -48,-21 -48,-47 0,-26 22,-48 48,-48 26,0 47,22 47,48 0,26 -21,47 -47,47zm92 -123c0,9 -7,17 -17,17 -9,0 -17,-8 -17,-17 0,-9 8,-17 17,-17 10,0 17,8 17,17zm49 17c-1,-23 -7,-43 -23,-59 -17,-17 -37,-22 -60,-23 -23,-2 -93,-2 -117,0 -22,1 -43,6 -59,23 -17,16 -22,36 -23,59 -1,24 -1,94 0,117 1,23 6,43 23,60 16,16 36,21 59,22 24,2 94,2 117,0 23,-1 43,-6 60,-22 16,-17 21,-37 23,-60 1,-23 1,-93 0,-117zm-31 142c-5,13 -14,22 -27,27 -18,8 -63,6 -83,6 -21,0 -65,2 -84,-6 -12,-5 -22,-14 -27,-27 -7,-18 -6,-63 -6,-83 0,-21 -1,-65 6,-84 5,-12 15,-22 27,-27 19,-7 63,-6 84,-6 20,0 65,-1 83,6 13,5 22,15 27,27 8,19 6,63 6,84 0,20 2,65 -6,83z"/>
    <path id="linkedin.svg_19" class="fil1" d="M4133 392l-245 0c-11,0 -20,9 -20,20l0 245c0,11 9,20 20,20l245 0c12,0 21,-9 21,-20l0 -245c0,-11 -9,-20 -21,-20zm-179 245l-42 0 0 -137 42 0 0 137 0 0zm-21 -155c-13,0 -24,-11 -24,-25 0,-13 11,-24 24,-24 14,0 25,11 25,24 0,14 -11,25 -25,25zm180 155l-42 0 0 -67c0,-15 -1,-36 -22,-36 -22,0 -26,17 -26,35l0 68 -42 0 0 -137 41 0 0 19 0 0c6,-11 20,-22 40,-22 43,0 51,28 51,65l0 75z"/>
   </g>
  </g>
  <g id="_404597488">
   <g>
    <path id="facebook.svg_20" class="fil1" d="M346 893c0,-78 -63,-142 -141,-142 -79,0 -142,64 -142,142 0,71 52,129 119,140l0 -99 -36 0 0 -41 36 0 0 -31c0,-36 22,-55 54,-55 15,0 32,2 32,2l0 35 -18 0c-18,0 -23,11 -23,22l0 27 39 0 -6 41 -33 0 0 99c67,-11 119,-69 119,-140z"/>
    <path id="twitter.svg_21" class="fil1" d="M639 840c0,3 0,6 0,8 0,83 -63,178 -178,178 -35,0 -68,-10 -96,-28 5,1 10,1 15,1 30,0 57,-10 78,-27 -27,-1 -51,-19 -58,-43 3,0 7,1 11,1 6,0 12,-1 17,-2 -29,-6 -50,-31 -50,-62l0 -1c8,5 18,8 28,8 -17,-11 -28,-30 -28,-52 0,-11 3,-22 9,-31 30,38 77,62 128,65 0,-4 -1,-9 -1,-14 0,-35 28,-63 62,-63 18,0 35,8 46,20 14,-3 28,-8 40,-15 -5,15 -15,27 -28,34 13,-1 25,-4 36,-9 -8,12 -19,23 -31,32l0 0z"/>
    <path id="instagram.svg_22" class="fil1" d="M871 820c-40,0 -72,33 -72,73 0,40 32,73 72,73 41,0 73,-33 73,-73 0,-40 -32,-73 -73,-73zm0 120c-26,0 -47,-21 -47,-47 0,-26 21,-47 47,-47 26,0 48,21 48,47 0,26 -22,47 -48,47zm93 -123c0,10 -8,17 -17,17 -9,0 -17,-7 -17,-17 0,-9 8,-17 17,-17 9,0 17,8 17,17zm48 17c-1,-22 -6,-42 -23,-59 -16,-17 -36,-22 -59,-23 -24,-1 -94,-1 -117,0 -23,1 -43,6 -60,23 -16,17 -21,37 -23,59 -1,24 -1,94 0,117 2,23 7,43 23,60 17,16 37,22 60,23 23,1 93,1 117,0 23,-1 43,-6 59,-23 17,-17 22,-37 23,-60 2,-23 2,-93 0,-117zm-30 143c-5,12 -15,22 -27,27 -19,7 -63,5 -84,5 -20,0 -65,2 -83,-5 -13,-5 -22,-15 -27,-27 -8,-19 -6,-63 -6,-84 0,-21 -2,-65 6,-84 5,-12 14,-22 27,-27 18,-7 63,-5 83,-5 21,0 65,-2 84,5 12,5 22,15 27,27 7,19 6,63 6,84 0,21 1,65 -6,84z"/>
    <path id="linkedin.svg_23" class="fil1" d="M1352 751l-245 0c-11,0 -20,9 -20,21l0 244c0,12 9,21 20,21l245 0c11,0 20,-9 20,-21l0 -244c0,-12 -9,-21 -20,-21zm-179 245l-42 0 0 -136 42 0 0 136 0 0zm-21 -155c-14,0 -25,-11 -25,-25 0,-13 11,-24 25,-24 13,0 24,11 24,24 0,14 -11,25 -24,25zm180 155l-43 0 0 -66c0,-16 0,-37 -22,-37 -22,0 -25,18 -25,35l0 68 -42 0 0 -136 40 0 0 18 1 0c5,-10 19,-22 40,-22 43,0 51,28 51,65l0 75z"/>
   </g>
   <g>
    <path id="facebook.svg_24" class="fil1" d="M1741 894c0,-78 -64,-142 -142,-142 -79,0 -142,64 -142,142 0,71 52,129 120,140l0 -99 -36 0 0 -41 36 0 0 -31c0,-36 21,-55 53,-55 16,0 32,2 32,2l0 35 -18 0c-18,0 -23,11 -23,22l0 27 39 0 -6 41 -33 0 0 99c68,-11 120,-69 120,-140z"/>
    <path id="twitter.svg_25" class="fil1" d="M2033 841c0,3 0,6 0,8 0,83 -62,178 -177,178 -36,0 -69,-10 -96,-28 5,1 9,1 15,1 29,0 56,-10 77,-27 -27,-1 -50,-19 -58,-43 4,0 8,1 12,1 5,0 11,-1 16,-2 -29,-6 -50,-31 -50,-62l0 -1c8,5 18,8 28,8 -17,-11 -28,-30 -28,-52 0,-11 3,-22 9,-31 31,38 77,62 129,65 -1,-4 -2,-9 -2,-14 0,-35 28,-63 63,-63 18,0 34,8 45,20 15,-3 28,-8 40,-15 -5,15 -14,27 -27,34 12,-1 24,-4 36,-9 -9,12 -20,23 -32,32l0 0z"/>
    <path id="instagram.svg_26" class="fil1" d="M2266 821c-41,0 -73,33 -73,73 0,40 32,73 73,73 40,0 72,-33 72,-73 0,-40 -32,-73 -72,-73zm0 120c-26,0 -48,-21 -48,-47 0,-26 22,-47 48,-47 26,0 47,21 47,47 0,26 -21,47 -47,47zm92 -123c0,10 -7,17 -17,17 -9,0 -17,-7 -17,-17 0,-9 8,-17 17,-17 10,0 17,8 17,17zm49 17c-2,-22 -7,-42 -23,-59 -17,-17 -37,-22 -60,-23 -23,-1 -93,-1 -117,0 -23,1 -43,6 -59,23 -17,17 -22,37 -23,59 -2,24 -2,94 0,117 1,23 6,43 23,60 16,16 36,22 59,23 24,1 94,1 117,0 23,-1 43,-6 60,-23 16,-17 21,-37 23,-60 1,-23 1,-93 0,-117zm-31 143c-5,12 -14,22 -27,27 -18,7 -63,5 -83,5 -21,0 -65,2 -84,-5 -12,-5 -22,-15 -27,-27 -7,-19 -6,-63 -6,-84 0,-21 -1,-65 6,-84 5,-12 15,-22 27,-27 19,-7 63,-5 84,-5 20,0 65,-2 83,5 13,5 22,15 27,27 8,19 6,63 6,84 0,21 2,65 -6,84z"/>
    <path id="linkedin.svg_27" class="fil1" d="M2746 752l-245 0c-11,0 -20,9 -20,21l0 244c0,12 9,21 20,21l245 0c11,0 21,-9 21,-21l0 -244c0,-12 -10,-21 -21,-21zm-179 245l-42 0 0 -136 42 0 0 136 0 0zm-21 -155c-13,0 -24,-11 -24,-25 0,-13 11,-24 24,-24 14,0 25,11 25,24 0,14 -11,25 -25,25zm180 155l-42 0 0 -66c0,-16 -1,-37 -22,-37 -22,0 -26,18 -26,36l0 67 -42 0 0 -136 41 0 0 18 0 0c6,-10 20,-22 40,-22 43,0 51,29 51,65l0 75z"/>
   </g>
   <g>
    <path id="facebook.svg_28" class="fil1" d="M3135 895c0,-78 -64,-142 -142,-142 -78,0 -142,64 -142,142 0,71 52,129 120,140l0 -99 -36 0 0 -41 36 0 0 -31c0,-36 21,-55 54,-55 15,0 31,2 31,2l0 35 -18 0c-17,0 -23,11 -23,22l0 27 40 0 -7 41 -33 0 0 99c68,-11 120,-69 120,-140z"/>
    <path id="twitter.svg_29" class="fil1" d="M3428 842c0,3 0,6 0,8 0,83 -63,178 -178,178 -36,0 -68,-10 -96,-28 5,1 10,1 15,1 29,0 56,-10 78,-27 -28,0 -51,-18 -59,-43 4,0 8,1 12,1 6,0 11,-1 16,-2 -28,-6 -50,-31 -50,-62l0 -1c9,5 18,8 29,8 -17,-11 -28,-30 -28,-52 0,-11 3,-22 8,-31 31,38 77,62 129,65 -1,-4 -1,-9 -1,-14 0,-35 27,-63 62,-63 18,0 34,8 46,20 14,-3 27,-8 39,-15 -4,15 -14,27 -27,34 12,-1 25,-4 36,-9 -9,12 -19,23 -31,32l0 0z"/>
    <path id="instagram.svg_30" class="fil1" d="M3660 822c-40,0 -73,33 -73,73 0,40 33,73 73,73 40,0 73,-33 73,-73 0,-40 -33,-73 -73,-73zm0 120c-26,0 -47,-21 -47,-47 0,-26 21,-47 47,-47 26,0 47,21 47,47 0,26 -21,47 -47,47zm93 -123c0,10 -8,17 -17,17 -10,0 -17,-7 -17,-17 0,-9 7,-17 17,-17 9,0 17,8 17,17zm48 17c-1,-22 -6,-42 -23,-59 -17,-17 -37,-22 -60,-23 -23,-1 -93,-1 -117,0 -22,1 -42,6 -59,23 -17,17 -22,37 -23,59 -1,24 -1,94 0,117 1,23 6,43 23,60 17,16 37,22 59,23 24,1 94,1 117,0 23,-1 43,-6 60,-23 16,-17 22,-37 23,-60 1,-23 1,-93 0,-117zm-30 143c-5,12 -15,22 -27,27 -19,7 -63,5 -84,5 -21,0 -65,2 -84,-5 -12,-5 -22,-15 -27,-27 -7,-19 -5,-63 -5,-84 0,-21 -2,-65 5,-84 5,-12 15,-22 27,-27 19,-7 63,-5 84,-5 21,0 65,-2 84,5 12,5 22,15 27,27 7,19 5,63 5,84 0,21 2,65 -5,84z"/>
    <path id="linkedin.svg_31" class="fil1" d="M4141 753l-245 0c-12,0 -21,9 -21,21l0 244c0,12 9,21 21,21l245 0c11,0 20,-9 20,-21l0 -244c0,-12 -9,-21 -20,-21zm-179 245l-43 0 0 -136 43 0 0 136 0 0zm-22 -155c-13,0 -24,-11 -24,-25 0,-13 11,-24 24,-24 14,0 25,11 25,24 0,14 -11,25 -25,25zm180 155l-42 0 0 -66c0,-16 0,-36 -22,-36 -22,0 -25,17 -25,35l0 67 -43 0 0 -136 41 0 0 18 0 0c6,-10 20,-22 41,-22 42,0 50,29 50,65l0 75z"/>
   </g>
  </g>
  <g id="_404596072">
   <g>
    <path id="facebook.svg_32" class="fil1" d="M346 1256c0,-78 -63,-142 -142,-142 -78,0 -141,64 -141,142 0,71 51,130 119,140l0 -99 -36 0 0 -41 36 0 0 -31c0,-36 21,-55 54,-55 15,0 32,3 32,3l0 34 -18 0c-18,0 -23,11 -23,23l0 26 39 0 -6 41 -33 0 0 99c67,-10 119,-69 119,-140z"/>
    <path id="twitter.svg_33" class="fil1" d="M639 1203c0,3 0,6 0,8 0,83 -63,178 -178,178 -35,0 -68,-10 -96,-28 5,1 10,1 15,1 30,0 56,-10 78,-27 -28,0 -51,-18 -59,-43 4,1 8,1 12,1 6,0 11,-1 17,-2 -29,-6 -50,-31 -50,-62l0 0c8,4 18,7 28,8 -17,-12 -28,-31 -28,-52 0,-12 3,-23 8,-32 31,38 78,63 129,65 -1,-4 -1,-9 -1,-14 0,-34 28,-62 62,-62 18,0 35,7 46,19 14,-2 28,-8 40,-15 -5,15 -15,27 -28,35 13,-2 25,-5 36,-10 -8,12 -19,23 -31,32l0 0z"/>
    <path id="instagram.svg_34" class="fil1" d="M871 1183c-40,0 -72,33 -72,73 0,40 32,73 72,73 41,0 73,-33 73,-73 0,-40 -32,-73 -73,-73zm0 120c-26,0 -47,-21 -47,-47 0,-26 21,-47 47,-47 26,0 48,21 48,47 0,26 -22,47 -48,47zm93 -122c0,9 -8,16 -17,16 -9,0 -17,-7 -17,-16 0,-10 8,-17 17,-17 9,0 17,7 17,17zm48 17c-1,-23 -6,-43 -23,-60 -16,-16 -37,-21 -59,-23 -24,-1 -94,-1 -117,0 -23,1 -43,7 -60,23 -16,17 -21,37 -23,60 -1,23 -1,93 0,117 1,22 7,43 23,59 17,17 37,22 60,23 23,1 93,1 117,0 22,-1 43,-6 59,-23 17,-16 22,-37 23,-59 1,-24 1,-94 0,-117zm-30 142c-5,12 -15,22 -27,27 -19,7 -63,5 -84,5 -20,0 -65,2 -83,-5 -13,-5 -22,-15 -27,-27 -8,-19 -6,-63 -6,-84 0,-20 -2,-65 6,-83 5,-13 14,-22 27,-27 18,-8 63,-6 83,-6 21,0 65,-2 84,6 12,5 22,14 27,27 7,18 6,63 6,83 0,21 1,65 -6,84z"/>
    <path id="linkedin.svg_35" class="fil1" d="M1352 1114l-245 0c-11,0 -20,10 -20,21l0 244c0,12 9,21 20,21l245 0c11,0 20,-9 20,-21l0 -244c0,-11 -9,-21 -20,-21zm-179 245l-42 0 0 -136 42 0 0 136 0 0zm-21 -155c-14,0 -25,-11 -25,-24 0,-14 11,-25 25,-25 13,0 24,11 24,25 0,13 -11,24 -24,24zm180 155l-43 0 0 -66c0,-16 0,-36 -22,-36 -22,0 -25,17 -25,35l0 67 -42 0 0 -136 40 0 0 19 1 0c5,-11 19,-22 40,-22 43,0 51,28 51,64l0 75z"/>
   </g>
   <g>
    <path id="facebook.svg_36" class="fil1" d="M1740 1257c0,-78 -63,-142 -141,-142 -79,0 -142,64 -142,142 0,71 52,130 120,140l0 -99 -36 0 0 -41 36 0 0 -31c0,-36 21,-55 53,-55 16,0 32,3 32,3l0 34 -18 0c-18,0 -23,11 -23,23l0 26 39 0 -6 41 -33 0 0 99c68,-10 119,-69 119,-140z"/>
    <path id="twitter.svg_37" class="fil1" d="M2033 1204c0,3 0,6 0,8 0,83 -63,178 -178,178 -35,0 -68,-10 -95,-28 5,1 9,1 15,1 29,0 56,-10 77,-27 -27,0 -50,-18 -58,-43 4,1 7,1 12,1 5,0 11,-1 16,-2 -29,-6 -50,-31 -50,-62l0 0c8,4 18,7 28,8 -17,-12 -28,-31 -28,-52 0,-12 3,-23 9,-32 31,38 77,63 129,65 -1,-4 -2,-9 -2,-14 0,-34 28,-62 63,-62 18,0 34,7 45,19 14,-2 28,-8 40,-15 -5,15 -15,27 -28,35 13,-2 25,-5 36,-10 -8,12 -19,23 -31,32l0 0z"/>
    <path id="instagram.svg_38" class="fil1" d="M2266 1184c-41,0 -73,33 -73,73 0,40 32,73 73,73 40,0 72,-33 72,-73 0,-40 -32,-73 -72,-73zm0 121c-26,0 -48,-22 -48,-48 0,-26 22,-47 48,-47 26,0 47,21 47,47 0,26 -21,48 -47,48zm92 -123c0,9 -7,16 -17,16 -9,0 -17,-7 -17,-16 0,-10 8,-17 17,-17 10,0 17,7 17,17zm48 17c-1,-23 -6,-43 -22,-60 -17,-16 -37,-21 -60,-23 -23,-1 -94,-1 -117,0 -23,1 -43,7 -59,23 -17,17 -22,37 -23,60 -2,23 -2,93 0,117 1,22 6,43 23,59 16,17 36,22 59,23 23,1 94,1 117,0 23,-1 43,-6 60,-23 16,-16 21,-37 22,-59 2,-24 2,-94 0,-117zm-30 142c-5,12 -14,22 -27,27 -18,7 -63,5 -83,5 -21,0 -65,2 -84,-5 -12,-5 -22,-15 -27,-27 -7,-19 -6,-63 -6,-84 0,-20 -1,-65 6,-83 5,-13 15,-22 27,-27 19,-8 63,-6 84,-6 20,0 65,-2 83,6 13,5 22,14 27,27 8,18 6,63 6,83 0,21 2,65 -6,84z"/>
    <path id="linkedin.svg_39" class="fil1" d="M2746 1115l-245 0c-11,0 -20,10 -20,21l0 244c0,12 9,21 20,21l245 0c11,0 21,-9 21,-21l0 -244c0,-11 -10,-21 -21,-21zm-179 245l-42 0 0 -136 42 0 0 136 0 0zm-21 -155c-14,0 -24,-11 -24,-24 0,-14 10,-25 24,-25 14,0 25,11 25,25 0,13 -11,24 -25,24zm180 155l-42 0 0 -66c0,-16 -1,-36 -22,-36 -22,0 -26,17 -26,35l0 67 -42 0 0 -136 40 0 0 19 1 0c6,-11 20,-22 40,-22 43,0 51,28 51,64l0 75z"/>
   </g>
   <g>
    <path id="facebook.svg_40" class="fil1" d="M3135 1258c0,-78 -64,-142 -142,-142 -78,0 -142,64 -142,142 0,71 52,130 120,140l0 -99 -36 0 0 -41 36 0 0 -31c0,-36 21,-55 53,-55 16,0 32,3 32,3l0 34 -18 0c-17,0 -23,11 -23,23l0 26 39 0 -6 41 -33 0 0 99c68,-10 120,-69 120,-140z"/>
    <path id="twitter.svg_41" class="fil1" d="M3427 1205c1,3 1,6 1,8 0,83 -63,178 -178,178 -36,0 -69,-10 -96,-28 5,1 10,1 15,1 29,0 56,-10 78,-27 -28,0 -51,-18 -59,-43 4,1 8,1 12,1 5,0 11,-1 16,-2 -28,-6 -50,-31 -50,-62l0 0c9,4 18,7 28,8 -16,-12 -27,-31 -27,-52 0,-12 3,-23 8,-32 31,38 77,63 129,65 -1,-4 -2,-9 -2,-14 0,-34 28,-62 63,-62 18,0 34,7 46,19 14,-2 27,-8 39,-15 -4,15 -14,27 -27,35 12,-2 25,-5 36,-10 -9,12 -19,23 -32,32l0 0z"/>
    <path id="instagram.svg_42" class="fil1" d="M3660 1186c-40,0 -73,32 -73,72 0,40 33,73 73,73 40,0 73,-33 73,-73 0,-40 -33,-72 -73,-72zm0 120c-26,0 -47,-22 -47,-48 0,-26 21,-47 47,-47 26,0 47,21 47,47 0,26 -21,48 -47,48zm93 -123c0,9 -8,16 -17,16 -10,0 -17,-7 -17,-16 0,-10 7,-17 17,-17 9,0 17,7 17,17zm48 17c-1,-23 -7,-43 -23,-60 -17,-16 -37,-21 -60,-23 -23,-1 -93,-1 -117,0 -22,1 -42,7 -59,23 -17,17 -22,37 -23,60 -1,23 -1,93 0,117 1,22 6,43 23,59 17,17 37,22 59,23 24,1 94,1 117,0 23,-1 43,-6 60,-23 16,-16 22,-37 23,-59 1,-24 1,-94 0,-117zm-31 142c-4,12 -14,22 -27,27 -18,7 -62,6 -83,6 -21,0 -65,1 -84,-6 -12,-5 -22,-15 -27,-27 -7,-19 -5,-63 -5,-84 0,-20 -2,-65 5,-83 5,-13 15,-22 27,-27 19,-8 63,-6 84,-6 21,0 65,-2 83,6 13,5 22,14 27,27 8,18 6,63 6,83 0,21 2,65 -6,84z"/>
    <path id="linkedin.svg_43" class="fil1" d="M4140 1116l-244 0c-12,0 -21,10 -21,21l0 244c0,12 9,21 21,21l244 0c12,0 21,-9 21,-21l0 -244c0,-11 -9,-21 -21,-21zm-178 245l-43 0 0 -136 43 0 0 136 0 0zm-22 -155c-13,0 -24,-11 -24,-24 0,-14 11,-25 24,-25 14,0 25,11 25,25 0,13 -11,24 -25,24zm180 155l-42 0 0 -66c0,-16 0,-36 -22,-36 -22,0 -26,17 -26,35l0 67 -42 0 0 -136 41 0 0 19 0 0c6,-11 20,-22 40,-22 43,0 51,28 51,65l0 74z"/>
   </g>
  </g>
  <g id="_404595160">
   <g>
    <path id="facebook.svg_44" class="fil1" d="M343 1637c0,-79 -64,-142 -142,-142 -79,0 -142,63 -142,142 0,71 52,129 120,140l0 -99 -36 0 0 -41 36 0 0 -31c0,-36 21,-56 53,-56 16,0 32,3 32,3l0 35 -18 0c-18,0 -23,11 -23,22l0 27 39 0 -6 41 -33 0 0 99c68,-11 120,-69 120,-140z"/>
    <path id="twitter.svg_45" class="fil1" d="M635 1584c0,3 0,5 0,8 0,83 -63,178 -178,178 -35,0 -68,-10 -95,-28 5,0 9,1 15,1 29,0 56,-10 77,-27 -27,-1 -50,-19 -58,-43 4,0 8,1 12,1 5,0 11,-1 16,-3 -29,-5 -50,-31 -50,-61l0 -1c8,5 18,8 28,8 -17,-11 -28,-30 -28,-52 0,-11 3,-22 9,-31 31,38 77,62 129,65 -1,-5 -2,-9 -2,-14 0,-35 28,-63 63,-63 18,0 34,8 45,20 14,-3 28,-8 40,-15 -5,14 -15,27 -28,34 13,-1 25,-5 36,-9 -8,12 -19,23 -31,32l0 0z"/>
    <path id="instagram.svg_46" class="fil1" d="M868 1564c-41,0 -73,33 -73,73 0,40 32,73 73,73 40,0 72,-33 72,-73 0,-40 -32,-73 -72,-73zm0 120c-26,0 -48,-21 -48,-47 0,-26 22,-47 48,-47 26,0 47,21 47,47 0,26 -21,47 -47,47zm92 -123c0,10 -7,17 -17,17 -9,0 -17,-8 -17,-17 0,-9 8,-17 17,-17 10,0 17,8 17,17zm48 17c-1,-22 -6,-43 -22,-59 -17,-17 -37,-22 -60,-23 -23,-1 -94,-1 -117,0 -23,1 -43,6 -59,23 -17,16 -22,37 -23,59 -2,24 -2,94 0,117 1,23 6,43 23,60 16,16 36,21 59,23 23,1 94,1 117,0 23,-1 43,-7 60,-23 16,-17 21,-37 22,-60 2,-23 2,-93 0,-117zm-30 142c-5,13 -14,22 -27,27 -18,8 -63,6 -83,6 -21,0 -65,2 -84,-6 -12,-5 -22,-14 -27,-27 -7,-18 -6,-63 -6,-83 0,-21 -1,-65 6,-84 5,-12 15,-22 27,-27 19,-7 63,-5 84,-5 20,0 65,-2 83,5 13,5 22,15 27,27 8,19 6,63 6,84 0,20 2,65 -6,83z"/>
    <path id="linkedin.svg_47" class="fil1" d="M1348 1495l-245 0c-11,0 -20,9 -20,21l0 244c0,11 9,21 20,21l245 0c11,0 21,-10 21,-21l0 -244c0,-12 -10,-21 -21,-21zm-179 245l-42 0 0 -137 42 0 0 137 0 0zm-21 -155c-14,0 -24,-11 -24,-25 0,-13 10,-24 24,-24 14,0 25,11 25,24 0,14 -11,25 -25,25zm180 155l-42 0 0 -67c0,-15 -1,-36 -22,-36 -22,0 -26,18 -26,35l0 68 -42 0 0 -137 40 0 0 19 1 0c6,-11 20,-22 40,-22 43,0 51,28 51,65l0 75z"/>
   </g>
   <g>
    <path id="facebook.svg_48" class="fil1" d="M1737 1638c0,-79 -64,-142 -142,-142 -78,0 -142,63 -142,142 0,71 52,129 120,140l0 -99 -36 0 0 -41 36 0 0 -31c0,-36 21,-56 53,-56 16,0 32,3 32,3l0 35 -18 0c-17,0 -23,11 -23,22l0 27 39 0 -6 41 -33 0 0 99c68,-11 120,-69 120,-140z"/>
    <path id="twitter.svg_49" class="fil1" d="M2029 1585c1,3 1,5 1,8 0,83 -63,178 -178,178 -36,0 -69,-10 -96,-28 5,0 10,1 15,1 29,0 56,-10 78,-27 -28,-1 -51,-19 -59,-43 4,0 8,1 12,1 5,0 11,-1 16,-3 -28,-5 -50,-31 -50,-61l0 -1c9,5 18,8 28,8 -16,-11 -27,-30 -27,-52 0,-11 3,-22 8,-31 31,38 77,62 129,65 -1,-5 -2,-9 -2,-14 0,-35 28,-63 63,-63 18,0 34,8 46,20 14,-3 27,-8 39,-15 -4,14 -14,27 -27,34 12,-1 25,-5 36,-9 -9,12 -19,23 -32,32l0 0z"/>
    <path id="instagram.svg_50" class="fil1" d="M2262 1565c-40,0 -73,33 -73,73 0,40 33,73 73,73 40,0 73,-33 73,-73 0,-40 -33,-73 -73,-73zm0 120c-26,0 -47,-21 -47,-47 0,-26 21,-47 47,-47 26,0 47,21 47,47 0,26 -21,47 -47,47zm93 -123c0,10 -8,17 -17,17 -10,0 -17,-8 -17,-17 0,-9 7,-17 17,-17 9,0 17,8 17,17zm48 17c-1,-22 -7,-43 -23,-59 -17,-17 -37,-22 -60,-23 -23,-1 -93,-1 -117,0 -22,1 -42,6 -59,23 -17,16 -22,37 -23,59 -1,24 -1,94 0,117 1,23 6,43 23,60 17,16 37,22 59,23 24,1 94,1 117,0 23,-1 43,-7 60,-23 16,-17 22,-37 23,-60 1,-23 1,-93 0,-117zm-31 142c-4,13 -14,22 -26,27 -19,8 -63,6 -84,6 -21,0 -65,2 -84,-6 -12,-5 -22,-14 -27,-27 -7,-18 -5,-63 -5,-83 0,-21 -2,-65 5,-84 5,-12 15,-22 27,-27 19,-7 63,-5 84,-5 21,0 65,-2 84,5 12,5 21,15 26,27 8,19 6,63 6,84 0,20 2,65 -6,83z"/>
    <path id="linkedin.svg_51" class="fil1" d="M2742 1496l-244 0c-12,0 -21,9 -21,21l0 244c0,11 9,21 21,21l244 0c12,0 21,-10 21,-21l0 -244c0,-12 -9,-21 -21,-21zm-178 245l-43 0 0 -137 43 0 0 137 0 0zm-22 -155c-13,0 -24,-11 -24,-25 0,-13 11,-24 24,-24 14,0 25,11 25,24 0,14 -11,25 -25,25zm180 155l-42 0 0 -66c0,-16 0,-37 -22,-37 -22,0 -26,18 -26,35l0 68 -42 0 0 -137 41 0 0 19 0 0c6,-11 20,-22 40,-22 43,0 51,28 51,65l0 75z"/>
   </g>
   <g>
    <path id="facebook.svg_52" class="fil1" d="M3131 1639c0,-79 -63,-142 -142,-142 -78,0 -141,63 -141,142 0,71 51,129 119,140l0 -99 -36 0 0 -41 36 0 0 -31c0,-36 21,-56 54,-56 15,0 31,3 31,3l0 35 -17 0c-18,0 -24,11 -24,22l0 27 40 0 -6 41 -34 0 0 99c68,-11 120,-69 120,-140z"/>
    <path id="twitter.svg_53" class="fil1" d="M3424 1586c0,3 0,5 0,8 0,83 -63,178 -178,178 -35,0 -68,-10 -96,-28 5,0 10,1 15,1 29,0 56,-10 78,-27 -28,-1 -51,-19 -59,-43 4,0 8,1 12,1 6,0 11,-1 17,-3 -29,-5 -50,-31 -50,-61l0 -1c8,5 18,8 28,8 -17,-11 -28,-30 -28,-52 0,-11 3,-22 8,-31 31,38 77,62 129,65 -1,-5 -1,-9 -1,-14 0,-35 28,-63 62,-63 18,0 34,8 46,20 14,-3 28,-8 40,-15 -5,14 -15,27 -28,34 13,-1 25,-5 36,-9 -8,12 -19,23 -31,32l0 0z"/>
    <path id="instagram.svg_54" class="fil1" d="M3656 1566c-40,0 -73,33 -73,73 0,40 33,73 73,73 40,0 73,-33 73,-73 0,-40 -33,-73 -73,-73zm0 120c-26,0 -47,-21 -47,-47 0,-26 21,-47 47,-47 26,0 47,21 47,47 0,26 -21,47 -47,47zm93 -123c0,10 -8,17 -17,17 -10,0 -17,-8 -17,-17 0,-9 8,-17 17,-17 9,0 17,8 17,17zm48 17c-1,-22 -6,-43 -23,-59 -16,-17 -37,-22 -59,-23 -24,-1 -94,-1 -117,0 -23,1 -43,6 -60,23 -16,16 -22,37 -23,59 -1,24 -1,94 0,117 1,23 7,43 23,60 17,16 37,22 60,23 23,1 93,1 117,0 22,-1 43,-7 59,-23 17,-17 22,-37 23,-60 1,-23 1,-93 0,-117zm-30 142c-5,13 -15,22 -27,27 -19,8 -63,6 -84,6 -20,0 -65,2 -83,-6 -13,-5 -22,-14 -27,-27 -8,-18 -6,-63 -6,-83 0,-21 -2,-65 6,-84 5,-12 14,-22 27,-27 18,-7 63,-5 83,-5 21,0 65,-2 84,5 12,5 22,15 27,27 7,19 5,63 5,84 0,20 2,65 -5,83z"/>
    <path id="linkedin.svg_55" class="fil1" d="M4137 1497l-245 0c-11,0 -20,9 -20,21l0 244c0,11 9,21 20,21l245 0c11,0 20,-10 20,-21l0 -244c0,-12 -9,-21 -20,-21zm-179 245l-43 0 0 -136 43 0 0 136 0 0zm-21 -155c-14,0 -25,-11 -25,-25 0,-13 11,-24 25,-24 13,0 24,11 24,24 0,14 -11,25 -24,25zm180 155l-43 0 0 -66c0,-16 0,-37 -22,-37 -22,0 -25,18 -25,35l0 68 -43 0 0 -136 41 0 0 18 1 0c5,-11 19,-22 40,-22 43,0 51,28 51,65l0 75z"/>
   </g>
  </g>
  <g id="_404592904">
   <g>
    <path id="facebook.svg_56" class="fil1" d="M342 2000c0,-78 -63,-142 -141,-142 -79,0 -142,64 -142,142 0,71 52,129 119,140l0 -99 -36 0 0 -41 36 0 0 -31c0,-36 22,-55 54,-55 16,0 32,2 32,2l0 35 -18 0c-18,0 -23,11 -23,22l0 27 39 0 -6 41 -33 0 0 99c68,-11 119,-69 119,-140z"/>
    <path id="twitter.svg_57" class="fil1" d="M635 1947c0,3 0,6 0,8 0,83 -63,178 -178,178 -35,0 -68,-10 -96,-28 5,1 10,1 15,1 30,0 57,-10 78,-27 -27,0 -50,-18 -58,-43 4,0 7,1 11,1 6,0 12,-1 17,-2 -29,-6 -50,-31 -50,-62l0 0c8,4 18,7 28,7 -17,-11 -28,-30 -28,-52 0,-11 3,-22 9,-31 30,38 77,63 129,65 -1,-4 -2,-9 -2,-14 0,-34 28,-63 63,-63 18,0 34,8 45,20 14,-3 28,-8 40,-15 -5,15 -15,27 -28,35 13,-2 25,-5 36,-10 -8,12 -19,23 -31,32l0 0z"/>
    <path id="instagram.svg_58" class="fil1" d="M867 1927c-40,0 -72,33 -72,73 0,40 32,73 72,73 41,0 73,-33 73,-73 0,-40 -32,-73 -73,-73zm0 120c-26,0 -47,-21 -47,-47 0,-26 21,-47 47,-47 27,0 48,21 48,47 0,26 -22,47 -48,47zm93 -123c0,10 -7,17 -17,17 -9,0 -17,-7 -17,-17 0,-9 8,-17 17,-17 10,0 17,8 17,17zm48 18c-1,-23 -6,-43 -23,-60 -16,-16 -36,-22 -59,-23 -23,-1 -94,-1 -117,0 -23,1 -43,6 -60,23 -16,17 -21,37 -22,60 -2,23 -2,93 0,117 1,22 6,42 22,59 17,17 37,22 60,23 23,1 94,1 117,0 23,-1 43,-6 59,-23 17,-17 22,-37 23,-59 2,-24 2,-94 0,-117zm-30 142c-5,12 -14,22 -27,27 -19,7 -63,5 -84,5 -20,0 -65,2 -83,-5 -13,-5 -22,-15 -27,-27 -8,-19 -6,-63 -6,-84 0,-21 -1,-65 6,-84 5,-12 14,-22 27,-27 19,-7 63,-5 83,-5 21,0 65,-2 84,5 12,5 22,15 27,27 7,19 6,63 6,84 0,21 1,65 -6,84z"/>
    <path id="linkedin.svg_59" class="fil1" d="M1348 1858l-245 0c-11,0 -20,9 -20,21l0 244c0,12 9,21 20,21l245 0c11,0 20,-9 20,-21l0 -244c0,-12 -9,-21 -20,-21zm-179 245l-42 0 0 -136 42 0 0 136 0 0zm-21 -155c-14,0 -25,-11 -25,-24 0,-14 11,-25 25,-25 13,0 25,11 25,25 0,13 -11,24 -25,24zm180 155l-43 0 0 -66c0,-16 0,-36 -22,-36 -22,0 -25,17 -25,35l0 67 -42 0 0 -136 40 0 0 18 1 0c6,-10 19,-22 40,-22 43,0 51,29 51,65l0 75z"/>
   </g>
   <g>
    <path id="facebook.svg_60" class="fil1" d="M1737 2001c0,-78 -64,-142 -142,-142 -78,0 -142,64 -142,142 0,71 52,129 120,140l0 -99 -36 0 0 -41 36 0 0 -31c0,-36 21,-55 53,-55 16,0 32,2 32,2l0 35 -18 0c-17,0 -23,11 -23,22l0 27 39 0 -6 41 -33 0 0 99c68,-11 120,-69 120,-140z"/>
    <path id="twitter.svg_61" class="fil1" d="M2029 1948c1,3 1,6 1,8 0,83 -63,178 -178,178 -36,0 -69,-10 -96,-28 5,1 10,1 15,1 29,0 56,-10 77,-27 -27,0 -50,-18 -58,-43 4,0 8,1 12,1 5,0 11,-1 16,-2 -28,-6 -50,-31 -50,-62l0 0c8,4 18,7 28,7 -16,-11 -28,-30 -28,-52 0,-11 4,-22 9,-31 31,38 77,63 129,65 -1,-4 -2,-9 -2,-14 0,-34 28,-63 63,-63 18,0 34,8 45,20 15,-2 28,-8 40,-15 -4,15 -14,27 -27,35 12,-2 24,-5 36,-10 -9,12 -19,23 -32,32l0 0z"/>
    <path id="instagram.svg_62" class="fil1" d="M2262 1928c-40,0 -73,33 -73,73 0,40 33,73 73,73 40,0 73,-33 73,-73 0,-40 -33,-73 -73,-73zm0 120c-26,0 -47,-21 -47,-47 0,-26 21,-47 47,-47 26,0 47,21 47,47 0,26 -21,47 -47,47zm92 -123c0,10 -7,17 -17,17 -9,0 -16,-7 -16,-17 0,-9 7,-17 16,-17 10,0 17,8 17,17zm49 18c-1,-23 -7,-43 -23,-60 -17,-16 -37,-22 -60,-23 -23,-1 -93,-1 -117,0 -22,1 -43,7 -59,23 -17,17 -22,37 -23,60 -1,23 -1,93 0,117 1,22 6,42 23,59 16,17 37,22 59,23 24,1 94,1 117,0 23,-1 43,-6 60,-23 16,-17 21,-37 23,-59 1,-24 1,-94 0,-117zm-31 142c-5,12 -14,22 -27,27 -18,7 -63,5 -83,5 -21,0 -65,2 -84,-5 -12,-5 -22,-15 -27,-27 -7,-19 -5,-63 -5,-84 0,-21 -2,-65 5,-84 5,-12 15,-22 27,-27 19,-7 63,-5 84,-5 20,0 65,-2 83,5 13,5 22,15 27,27 8,19 6,63 6,84 0,21 2,65 -6,84z"/>
    <path id="linkedin.svg_63" class="fil1" d="M2742 1859l-245 0c-11,0 -20,9 -20,21l0 244c0,12 9,21 20,21l245 0c12,0 21,-9 21,-21l0 -244c0,-12 -9,-21 -21,-21zm-179 245l-42 0 0 -136 42 0 0 136 0 0zm-21 -155c-13,0 -24,-11 -24,-24 0,-14 11,-25 24,-25 14,0 25,11 25,25 0,13 -11,24 -25,24zm180 155l-42 0 0 -66c0,-16 -1,-36 -22,-36 -22,0 -26,17 -26,35l0 67 -42 0 0 -136 41 0 0 18 0 0c6,-10 20,-22 40,-22 43,0 51,29 51,65l0 75z"/>
   </g>
   <g>
    <path id="facebook.svg_64" class="fil1" d="M3131 2002c0,-78 -63,-142 -142,-142 -78,0 -142,64 -142,142 0,71 52,129 120,140l0 -99 -36 0 0 -41 36 0 0 -31c0,-36 21,-55 54,-55 15,0 31,2 31,2l0 35 -18 0c-17,0 -23,11 -23,22l0 27 40 0 -7 41 -33 0 0 99c68,-11 120,-69 120,-140z"/>
    <path id="twitter.svg_65" class="fil1" d="M3424 1949c0,3 0,6 0,8 0,83 -63,178 -178,178 -35,0 -68,-10 -96,-28 5,1 10,1 15,1 29,0 56,-10 78,-27 -28,0 -51,-18 -59,-43 4,0 8,1 12,1 6,0 11,-1 17,-2 -29,-6 -51,-31 -51,-62l0 0c9,4 18,7 29,8 -17,-12 -28,-31 -28,-53 0,-11 3,-22 8,-31 31,38 77,63 129,65 -1,-4 -1,-9 -1,-14 0,-34 27,-63 62,-63 18,0 34,8 46,20 14,-2 27,-8 39,-15 -4,15 -14,27 -27,35 13,-2 25,-5 36,-10 -9,12 -19,23 -31,32l0 0z"/>
    <path id="instagram.svg_66" class="fil1" d="M3656 1929c-40,0 -73,33 -73,73 0,40 33,73 73,73 40,0 73,-33 73,-73 0,-40 -33,-73 -73,-73zm0 120c-26,0 -47,-21 -47,-47 0,-26 21,-47 47,-47 26,0 47,21 47,47 0,26 -21,47 -47,47zm93 -123c0,10 -8,17 -17,17 -10,0 -17,-7 -17,-17 0,-9 7,-17 17,-17 9,0 17,8 17,17zm48 18c-1,-23 -6,-43 -23,-60 -17,-16 -37,-22 -59,-23 -24,-1 -94,-1 -117,0 -23,1 -43,7 -60,23 -17,17 -22,37 -23,60 -1,23 -1,93 0,117 1,22 6,42 23,59 17,17 37,22 60,23 23,1 93,1 117,0 22,-1 42,-6 59,-23 17,-17 22,-37 23,-59 1,-24 1,-94 0,-117zm-30 142c-5,12 -15,22 -27,27 -19,7 -63,5 -84,5 -21,0 -65,2 -84,-5 -12,-5 -21,-15 -26,-27 -8,-19 -6,-63 -6,-84 0,-21 -2,-65 6,-84 4,-12 14,-21 26,-26 19,-8 63,-6 84,-6 21,0 65,-2 84,6 12,4 22,14 27,26 7,19 5,63 5,84 0,21 2,65 -5,84z"/>
    <path id="linkedin.svg_67" class="fil1" d="M4137 1860l-245 0c-11,0 -21,9 -21,21l0 244c0,12 10,21 21,21l245 0c11,0 20,-9 20,-21l0 -244c0,-12 -9,-21 -20,-21zm-179 245l-43 0 0 -136 43 0 0 136 0 0zm-21 -155c-14,0 -25,-11 -25,-24 0,-14 11,-25 25,-25 13,0 24,11 24,25 0,13 -11,24 -24,24zm179 155l-42 0 0 -66c0,-16 0,-36 -22,-36 -22,0 -25,17 -25,35l0 67 -43 0 0 -136 41 0 0 18 1 0c5,-10 19,-22 40,-22 42,0 50,29 50,65l0 75z"/>
   </g>
  </g>
  <g id="_404591056">
   <g>
    <path id="facebook.svg_68" class="fil1" d="M347 2362c0,-78 -64,-141 -142,-141 -78,0 -142,63 -142,141 0,71 52,130 120,141l0 -100 -36 0 0 -41 36 0 0 -31c0,-35 21,-55 53,-55 16,0 32,3 32,3l0 35 -18 0c-17,0 -23,11 -23,22l0 26 40 0 -7 41 -33 0 0 100c68,-11 120,-70 120,-141z"/>
    <path id="twitter.svg_69" class="fil1" d="M640 2310c0,2 0,5 0,8 0,82 -63,178 -178,178 -36,0 -68,-11 -96,-28 5,0 10,0 15,0 29,0 56,-10 78,-26 -28,-1 -51,-19 -59,-44 4,1 8,1 12,1 6,0 11,-1 16,-2 -28,-6 -50,-31 -50,-61l0 -1c9,5 18,8 29,8 -17,-11 -28,-30 -28,-52 0,-12 3,-22 8,-32 31,38 77,63 129,66 -1,-5 -1,-10 -1,-15 0,-34 27,-62 62,-62 18,0 34,7 46,20 14,-3 27,-8 39,-15 -4,14 -14,26 -27,34 12,-1 25,-5 36,-10 -9,13 -19,24 -31,33l0 0z"/>
    <path id="instagram.svg_70" class="fil1" d="M872 2290c-40,0 -73,32 -73,72 0,41 33,73 73,73 40,0 73,-32 73,-73 0,-40 -33,-72 -73,-72zm0 120c-26,0 -47,-21 -47,-48 0,-26 21,-47 47,-47 26,0 47,21 47,47 0,27 -21,48 -47,48zm93 -123c0,9 -8,17 -17,17 -10,0 -17,-8 -17,-17 0,-10 7,-17 17,-17 9,0 17,7 17,17zm48 17c-1,-23 -6,-43 -23,-59 -17,-17 -37,-22 -60,-23 -23,-2 -93,-2 -117,0 -22,1 -42,6 -59,23 -17,16 -22,36 -23,59 -1,23 -1,94 0,117 1,23 6,43 23,59 17,17 37,22 59,23 24,2 94,2 117,0 23,-1 43,-6 60,-23 16,-16 22,-36 23,-59 1,-23 1,-94 0,-117zm-30 142c-5,13 -15,22 -27,27 -19,7 -63,6 -84,6 -21,0 -65,1 -84,-6 -12,-5 -22,-14 -27,-27 -7,-19 -5,-63 -5,-84 0,-20 -2,-65 5,-83 5,-13 15,-22 27,-27 19,-7 63,-6 84,-6 21,0 65,-1 84,6 12,5 22,14 27,27 7,19 5,63 5,83 0,21 2,65 -5,84z"/>
    <path id="linkedin.svg_71" class="fil1" d="M1353 2221l-245 0c-12,0 -21,9 -21,20l0 245c0,11 9,20 21,20l245 0c11,0 20,-9 20,-20l0 -245c0,-11 -9,-20 -20,-20zm-179 244l-43 0 0 -136 43 0 0 136 0 0zm-22 -154c-13,0 -24,-11 -24,-25 0,-14 11,-25 24,-25 14,0 25,11 25,25 0,14 -11,25 -25,25zm180 154l-42 0 0 -66c0,-16 0,-36 -22,-36 -22,0 -25,17 -25,35l0 67 -43 0 0 -136 41 0 0 19 0 0c6,-11 20,-22 40,-22 43,0 51,28 51,65l0 74z"/>
   </g>
   <g>
    <path id="facebook.svg_72" class="fil1" d="M1741 2363c0,-78 -63,-141 -142,-141 -78,0 -141,63 -141,141 0,71 51,130 119,141l0 -100 -36 0 0 -41 36 0 0 -31c0,-35 21,-55 54,-55 15,0 32,3 32,3l0 35 -18 0c-18,0 -23,11 -23,22l0 26 39 0 -6 41 -33 0 0 100c67,-11 119,-70 119,-141z"/>
    <path id="twitter.svg_73" class="fil1" d="M2034 2311c0,2 0,5 0,8 0,82 -63,178 -178,178 -35,0 -68,-11 -96,-28 5,0 10,0 15,0 30,0 56,-10 78,-26 -28,-1 -51,-19 -59,-44 4,1 8,1 12,1 6,0 11,-1 17,-2 -29,-6 -50,-31 -50,-61l0 -1c8,5 18,8 28,8 -17,-11 -28,-30 -28,-52 0,-12 3,-22 8,-32 31,38 77,63 129,66 -1,-5 -1,-10 -1,-15 0,-34 28,-62 62,-62 18,0 35,7 46,20 14,-3 28,-8 40,-15 -5,14 -15,26 -28,34 13,-1 25,-5 36,-10 -8,13 -19,24 -31,33l0 0z"/>
    <path id="instagram.svg_74" class="fil1" d="M2266 2291c-40,0 -72,32 -72,73 0,40 32,72 72,72 41,0 73,-32 73,-72 0,-41 -32,-73 -73,-73zm0 120c-26,0 -47,-21 -47,-47 0,-27 21,-48 47,-48 26,0 48,21 48,48 0,26 -22,47 -48,47zm93 -123c0,9 -8,17 -17,17 -9,0 -17,-8 -17,-17 0,-10 8,-17 17,-17 9,0 17,7 17,17zm48 17c-1,-23 -6,-43 -23,-59 -16,-17 -37,-22 -59,-23 -24,-2 -94,-2 -117,0 -23,1 -43,6 -60,23 -16,16 -21,36 -23,59 -1,23 -1,94 0,117 1,23 7,43 23,59 17,17 37,22 60,23 23,2 93,2 117,0 22,-1 43,-6 59,-23 17,-16 22,-36 23,-59 1,-23 1,-94 0,-117zm-30 142c-5,13 -15,22 -27,27 -19,7 -63,6 -84,6 -20,0 -65,1 -83,-6 -13,-5 -22,-14 -27,-27 -8,-19 -6,-63 -6,-83 0,-21 -2,-66 6,-84 5,-13 14,-22 27,-27 18,-7 63,-6 83,-6 21,0 65,-1 84,6 12,5 22,14 27,27 7,19 6,63 6,84 0,20 1,65 -6,83z"/>
    <path id="linkedin.svg_75" class="fil1" d="M2747 2222l-245 0c-11,0 -20,9 -20,20l0 245c0,11 9,20 20,20l245 0c11,0 20,-9 20,-20l0 -245c0,-11 -9,-20 -20,-20zm-179 244l-42 0 0 -136 42 0 0 136 0 0zm-21 -154c-14,0 -25,-11 -25,-25 0,-13 11,-25 25,-25 13,0 24,12 24,25 0,14 -11,25 -24,25zm180 154l-43 0 0 -66c0,-16 0,-36 -22,-36 -22,0 -25,17 -25,35l0 67 -42 0 0 -136 40 0 0 19 1 0c5,-11 19,-22 40,-22 43,0 51,28 51,65l0 74z"/>
   </g>
   <g>
    <path id="facebook.svg_76" class="fil1" d="M3135 2364c0,-78 -63,-141 -141,-141 -79,0 -142,63 -142,141 0,71 52,130 120,141l0 -100 -36 0 0 -41 36 0 0 -31c0,-35 21,-55 53,-55 16,0 32,3 32,3l0 35 -18 0c-18,0 -23,11 -23,22l0 26 39 0 -6 41 -33 0 0 100c68,-11 119,-70 119,-141z"/>
    <path id="twitter.svg_77" class="fil1" d="M3428 2312c0,2 0,5 0,8 0,82 -63,178 -178,178 -35,0 -68,-11 -95,-28 5,0 9,0 15,0 29,0 56,-10 77,-26 -27,-1 -50,-19 -58,-44 4,1 7,1 12,1 5,0 11,-1 16,-2 -29,-6 -50,-31 -50,-61l0 -1c8,5 18,8 28,8 -17,-11 -28,-30 -28,-52 0,-12 3,-22 9,-32 31,38 77,63 129,66 -1,-5 -2,-10 -2,-15 0,-34 28,-62 63,-62 18,0 34,7 45,20 14,-3 28,-8 40,-15 -5,14 -15,26 -28,34 13,-1 25,-5 36,-10 -8,13 -19,24 -31,33l0 0z"/>
    <path id="instagram.svg_78" class="fil1" d="M3661 2292c-41,0 -73,32 -73,73 0,40 32,72 73,72 40,0 72,-32 72,-72 0,-41 -32,-73 -72,-73zm0 120c-26,0 -48,-21 -48,-47 0,-27 21,-48 48,-48 26,0 47,21 47,48 0,26 -21,47 -47,47zm92 -123c0,9 -7,17 -17,17 -9,0 -17,-8 -17,-17 0,-10 8,-17 17,-17 10,0 17,7 17,17zm48 17c-1,-23 -6,-43 -23,-59 -16,-17 -36,-22 -59,-23 -23,-2 -94,-2 -117,0 -23,1 -43,6 -59,23 -17,16 -22,36 -23,59 -2,23 -2,94 0,117 1,23 6,43 23,59 16,17 36,22 59,23 23,2 94,2 117,0 23,-1 43,-6 59,-23 17,-16 22,-36 23,-59 2,-23 2,-94 0,-117zm-30 142c-5,13 -14,22 -27,27 -18,7 -63,6 -83,6 -21,0 -65,1 -84,-6 -12,-5 -22,-14 -27,-27 -7,-19 -6,-63 -6,-83 0,-21 -1,-65 6,-84 5,-13 14,-22 27,-27 19,-7 63,-6 84,-6 20,0 65,-1 83,6 13,5 22,14 27,27 8,19 6,63 6,84 0,20 2,65 -6,83z"/>
    <path id="linkedin.svg_79" class="fil1" d="M4141 2223l-245 0c-11,0 -20,9 -20,20l0 245c0,11 9,20 20,20l245 0c11,0 21,-9 21,-20l0 -245c0,-11 -10,-20 -21,-20zm-179 245l-42 0 0 -137 42 0 0 137 0 0zm-21 -155c-14,0 -25,-11 -25,-25 0,-13 11,-25 25,-25 14,0 25,12 25,25 0,14 -11,25 -25,25zm180 155l-42 0 0 -67c0,-16 -1,-36 -22,-36 -22,0 -26,17 -26,35l0 68 -42 0 0 -137 40 0 0 19 1 0c6,-11 20,-22 40,-22 43,0 51,28 51,65l0 75z"/>
   </g>
  </g>
  <g id="_404589376">
   <g>
    <path id="facebook.svg_80" class="fil1" d="M347 2726c0,-79 -64,-142 -142,-142 -78,0 -142,63 -142,142 0,70 52,129 120,140l0 -99 -36 0 0 -41 36 0 0 -32c0,-35 21,-55 53,-55 16,0 32,3 32,3l0 35 -18 0c-17,0 -23,11 -23,22l0 27 39 0 -6 41 -33 0 0 99c68,-11 120,-70 120,-140z"/>
    <path id="twitter.svg_81" class="fil1" d="M639 2673c1,3 1,5 1,8 0,83 -63,178 -178,178 -36,0 -69,-10 -96,-28 5,0 10,1 15,1 29,0 56,-10 77,-27 -27,-1 -50,-19 -58,-43 4,0 8,0 12,0 5,0 11,0 16,-2 -28,-5 -50,-31 -50,-61l0 -1c8,5 18,8 28,8 -16,-11 -27,-30 -27,-52 0,-11 3,-22 8,-31 31,38 77,62 129,65 -1,-5 -2,-9 -2,-14 0,-35 28,-63 63,-63 18,0 34,8 46,20 14,-3 27,-8 39,-15 -4,14 -14,27 -27,34 12,-1 25,-5 36,-9 -9,12 -19,23 -32,32l0 0z"/>
    <path id="instagram.svg_82" class="fil1" d="M872 2653c-40,0 -73,32 -73,73 0,40 33,72 73,72 40,0 73,-32 73,-72 0,-41 -33,-73 -73,-73zm0 120c-26,0 -47,-21 -47,-47 0,-26 21,-48 47,-48 26,0 47,22 47,48 0,26 -21,47 -47,47zm93 -123c0,9 -8,17 -17,17 -10,0 -17,-8 -17,-17 0,-9 7,-17 17,-17 9,0 17,8 17,17zm48 17c-1,-22 -7,-43 -23,-59 -17,-17 -37,-22 -60,-23 -23,-1 -93,-1 -117,0 -22,1 -42,6 -59,23 -17,16 -22,36 -23,59 -1,24 -1,94 0,117 1,23 6,43 23,60 17,16 37,21 59,23 24,1 94,1 117,0 23,-1 43,-7 60,-23 16,-17 22,-37 23,-60 1,-23 1,-93 0,-117zm-31 142c-5,13 -14,22 -27,27 -18,8 -63,6 -83,6 -21,0 -65,2 -84,-6 -12,-5 -22,-14 -27,-27 -7,-18 -5,-63 -5,-83 0,-21 -2,-65 5,-84 5,-12 15,-22 27,-27 19,-7 63,-6 84,-6 20,0 65,-1 83,6 13,5 22,15 27,27 8,19 6,63 6,84 0,20 2,65 -6,83z"/>
    <path id="linkedin.svg_83" class="fil1" d="M1352 2584l-244 0c-12,0 -21,9 -21,21l0 244c0,11 9,21 21,21l244 0c12,0 21,-10 21,-21l0 -244c0,-12 -9,-21 -21,-21zm-178 245l-43 0 0 -137 43 0 0 137 0 0zm-22 -155c-13,0 -24,-11 -24,-25 0,-13 11,-24 24,-24 14,0 25,11 25,24 0,14 -11,25 -25,25zm180 155l-42 0 0 -67c0,-15 0,-36 -22,-36 -22,0 -26,18 -26,35l0 68 -42 0 0 -137 41 0 0 19 0 0c6,-11 20,-22 40,-22 43,0 51,28 51,65l0 75z"/>
   </g>
   <g>
    <path id="facebook.svg_84" class="fil1" d="M1741 2727c0,-79 -63,-142 -142,-142 -78,0 -142,63 -142,142 0,71 52,129 120,140l0 -99 -36 0 0 -41 36 0 0 -32c0,-35 21,-55 54,-55 15,0 31,3 31,3l0 35 -17 0c-18,0 -24,11 -24,22l0 27 40 0 -7 41 -33 0 0 99c68,-11 120,-69 120,-140z"/>
    <path id="twitter.svg_85" class="fil1" d="M2034 2674c0,3 0,5 0,8 0,83 -63,178 -178,178 -35,0 -68,-10 -96,-28 5,0 10,1 15,1 29,0 56,-10 78,-27 -28,-1 -51,-19 -59,-43 4,0 8,0 12,0 6,0 11,0 17,-2 -29,-5 -51,-31 -51,-61l0 -1c9,5 18,8 29,8 -17,-11 -28,-30 -28,-52 0,-11 3,-22 8,-31 31,38 77,62 129,65 -1,-5 -1,-9 -1,-14 0,-35 28,-63 62,-63 18,0 34,8 46,20 14,-3 28,-8 40,-15 -5,14 -15,27 -28,34 13,-1 25,-5 36,-9 -8,12 -19,23 -31,32l0 0z"/>
    <path id="instagram.svg_86" class="fil1" d="M2266 2654c-40,0 -73,33 -73,73 0,40 33,72 73,72 40,0 73,-32 73,-72 0,-40 -33,-73 -73,-73zm0 120c-26,0 -47,-21 -47,-47 0,-26 21,-48 47,-48 26,0 47,22 47,48 0,26 -21,47 -47,47zm93 -123c0,9 -8,17 -17,17 -10,0 -17,-8 -17,-17 0,-9 7,-17 17,-17 9,0 17,8 17,17zm48 17c-1,-22 -6,-43 -23,-59 -16,-17 -37,-22 -59,-23 -24,-1 -94,-1 -117,0 -23,1 -43,6 -60,23 -16,16 -22,36 -23,59 -1,24 -1,94 0,117 1,23 7,43 23,60 17,16 37,21 60,23 23,1 93,1 117,0 22,-1 42,-7 59,-23 17,-17 22,-37 23,-60 1,-23 1,-93 0,-117zm-30 142c-5,13 -15,22 -27,27 -19,8 -63,6 -84,6 -20,0 -65,2 -83,-6 -13,-5 -22,-14 -27,-27 -8,-18 -6,-63 -6,-83 0,-21 -2,-65 6,-84 5,-12 14,-22 27,-27 18,-7 63,-6 83,-6 21,0 65,-1 84,6 12,5 22,15 27,27 7,19 5,63 5,84 0,20 2,65 -5,83z"/>
    <path id="linkedin.svg_87" class="fil1" d="M2747 2585l-245 0c-11,0 -21,9 -21,21l0 244c0,11 10,21 21,21l245 0c11,0 20,-10 20,-21l0 -244c0,-12 -9,-21 -20,-21zm-179 245l-43 0 0 -137 43 0 0 137 0 0zm-21 -155c-14,0 -25,-11 -25,-25 0,-13 11,-24 25,-24 13,0 24,11 24,24 0,14 -11,25 -24,25zm180 155l-43 0 0 -67c0,-15 0,-36 -22,-36 -22,0 -25,18 -25,35l0 68 -43 0 0 -137 41 0 0 19 1 0c5,-11 19,-22 40,-22 43,0 51,28 51,65l0 75z"/>
   </g>
   <g>
    <path id="facebook.svg_88" class="fil1" d="M3135 2728c0,-79 -63,-142 -141,-142 -79,0 -142,63 -142,142 0,71 52,129 119,140l0 -99 -36 0 0 -41 36 0 0 -31c0,-36 22,-56 54,-56 16,0 32,3 32,3l0 35 -18 0c-18,0 -23,11 -23,22l0 27 39 0 -6 41 -33 0 0 99c68,-11 119,-69 119,-140z"/>
    <path id="twitter.svg_89" class="fil1" d="M3428 2675c0,3 0,5 0,8 0,83 -63,178 -178,178 -35,0 -68,-10 -96,-28 5,0 10,1 15,1 30,0 57,-10 78,-27 -27,-1 -50,-19 -58,-43 4,0 7,1 11,1 6,0 12,-1 17,-3 -29,-5 -50,-31 -50,-61l0 -1c8,5 18,8 28,8 -17,-11 -28,-30 -28,-52 0,-11 3,-22 9,-31 30,38 77,62 129,65 -1,-5 -2,-9 -2,-14 0,-35 28,-63 63,-63 18,0 34,8 45,20 14,-3 28,-8 40,-15 -5,14 -15,27 -28,34 13,-1 25,-5 36,-9 -8,12 -19,23 -31,32l0 0z"/>
    <path id="instagram.svg_90" class="fil1" d="M3660 2655c-40,0 -72,33 -72,73 0,40 32,72 72,72 41,0 73,-32 73,-72 0,-40 -32,-73 -73,-73zm0 120c-26,0 -47,-21 -47,-47 0,-26 21,-48 47,-48 27,0 48,22 48,48 0,26 -22,47 -48,47zm93 -123c0,10 -7,17 -17,17 -9,0 -17,-8 -17,-17 0,-9 8,-17 17,-17 10,0 17,8 17,17zm48 17c-1,-22 -6,-43 -23,-59 -16,-17 -36,-22 -59,-23 -23,-1 -94,-1 -117,0 -23,1 -43,6 -60,23 -16,16 -21,36 -22,59 -2,24 -2,94 0,117 1,23 6,43 22,60 17,16 37,21 60,23 23,1 94,1 117,0 23,-1 43,-7 59,-23 17,-17 22,-37 23,-60 2,-23 2,-93 0,-117zm-30 142c-5,13 -14,22 -27,27 -19,8 -63,6 -84,6 -20,0 -65,2 -83,-6 -13,-5 -22,-14 -27,-27 -8,-18 -6,-63 -6,-83 0,-21 -1,-65 6,-84 5,-12 14,-22 27,-27 19,-7 63,-6 83,-6 21,0 65,-1 84,6 12,5 22,15 27,27 7,19 6,63 6,84 0,20 1,65 -6,83z"/>
    <path id="linkedin.svg_91" class="fil1" d="M4141 2586l-245 0c-11,0 -20,9 -20,21l0 244c0,11 9,21 20,21l245 0c11,0 20,-10 20,-21l0 -244c0,-12 -9,-21 -20,-21zm-179 245l-42 0 0 -137 42 0 0 137 0 0zm-21 -155c-14,0 -25,-11 -25,-25 0,-13 11,-24 25,-24 13,0 24,11 24,24 0,14 -10,25 -24,25zm180 155l-43 0 0 -67c0,-15 0,-36 -22,-36 -22,0 -25,18 -25,35l0 68 -42 0 0 -137 40 0 0 19 1 0c6,-11 19,-22 40,-22 43,0 51,28 51,65l0 75z"/>
   </g>
  </g>
  <g id="_404588008">
   <g>
    <path id="facebook.svg_92" class="fil1" d="M347 3086c0,-78 -63,-142 -142,-142 -78,0 -142,64 -142,142 0,71 52,130 120,140l0 -99 -36 0 0 -41 36 0 0 -31c0,-36 21,-55 54,-55 15,0 31,3 31,3l0 34 -18 0c-17,0 -23,11 -23,23l0 26 40 0 -7 41 -33 0 0 99c68,-10 120,-69 120,-140z"/>
    <path id="twitter.svg_93" class="fil1" d="M640 3033c0,3 0,6 0,9 0,82 -63,177 -178,177 -35,0 -68,-10 -96,-28 5,1 10,1 15,1 29,0 56,-10 78,-27 -28,0 -51,-18 -59,-43 4,1 8,1 12,1 6,0 11,-1 17,-2 -29,-6 -51,-31 -51,-61l0 -1c9,4 18,7 29,8 -17,-12 -28,-31 -28,-52 0,-12 3,-23 8,-32 31,38 77,63 129,65 -1,-4 -1,-9 -1,-14 0,-34 27,-62 62,-62 18,0 34,7 46,19 14,-2 27,-8 39,-15 -4,15 -14,27 -27,35 13,-2 25,-5 36,-10 -9,12 -19,23 -31,32l0 0z"/>
    <path id="instagram.svg_94" class="fil1" d="M872 3014c-40,0 -73,32 -73,72 0,40 33,73 73,73 40,0 73,-33 73,-73 0,-40 -33,-72 -73,-72zm0 120c-26,0 -47,-22 -47,-48 0,-26 21,-47 47,-47 26,0 47,21 47,47 0,26 -21,48 -47,48zm93 -123c0,9 -8,17 -17,17 -10,0 -17,-8 -17,-17 0,-10 7,-17 17,-17 9,0 17,7 17,17zm48 17c-1,-23 -6,-43 -23,-60 -17,-16 -37,-21 -59,-23 -24,-1 -94,-1 -117,0 -23,1 -43,7 -60,23 -17,17 -22,37 -23,60 -1,23 -1,93 0,117 1,22 6,43 23,59 17,17 37,22 60,23 23,1 93,1 117,0 22,-1 42,-6 59,-23 17,-16 22,-37 23,-59 1,-24 1,-94 0,-117zm-30 142c-5,12 -15,22 -27,27 -19,7 -63,6 -84,6 -21,0 -65,1 -84,-6 -12,-5 -21,-15 -26,-27 -8,-19 -6,-63 -6,-84 0,-20 -2,-65 6,-83 4,-13 14,-22 26,-27 19,-8 63,-6 84,-6 21,0 65,-2 84,6 12,5 22,14 27,27 7,18 5,63 5,83 0,21 2,65 -5,84z"/>
    <path id="linkedin.svg_95" class="fil1" d="M1353 2944l-245 0c-11,0 -21,10 -21,21l0 244c0,12 10,21 21,21l245 0c11,0 20,-9 20,-21l0 -244c0,-11 -9,-21 -20,-21zm-179 245l-43 0 0 -136 43 0 0 136 0 0zm-21 -155c-14,0 -25,-11 -25,-24 0,-14 11,-25 25,-25 13,0 24,11 24,25 0,13 -11,24 -24,24zm179 155l-42 0 0 -66c0,-16 0,-36 -22,-36 -22,0 -25,17 -25,35l0 67 -43 0 0 -136 41 0 0 19 1 0c5,-11 19,-22 40,-22 42,0 50,28 50,65l0 74z"/>
   </g>
   <g>
    <path id="facebook.svg_96" class="fil1" d="M1741 3087c0,-78 -63,-142 -141,-142 -79,0 -142,64 -142,142 0,71 52,130 119,140l0 -99 -36 0 0 -41 36 0 0 -31c0,-36 22,-55 54,-55 15,0 32,3 32,3l0 34 -18 0c-18,0 -23,11 -23,23l0 26 39 0 -6 41 -33 0 0 99c67,-10 119,-69 119,-140z"/>
    <path id="twitter.svg_97" class="fil1" d="M2034 3034c0,3 0,6 0,9 0,82 -63,177 -178,177 -35,0 -68,-10 -96,-28 5,1 10,1 15,1 30,0 57,-10 78,-27 -27,0 -51,-18 -58,-43 3,1 7,1 11,1 6,0 12,-1 17,-2 -29,-6 -50,-31 -50,-61l0 -1c8,4 18,7 28,8 -17,-12 -28,-31 -28,-52 0,-12 3,-23 9,-32 30,38 77,63 128,65 0,-4 -1,-9 -1,-14 0,-34 28,-62 62,-62 18,0 35,7 46,19 14,-2 28,-8 40,-15 -5,15 -15,27 -28,35 13,-2 25,-5 36,-10 -8,12 -19,23 -31,32l0 0z"/>
    <path id="instagram.svg_98" class="fil1" d="M2266 3015c-40,0 -72,32 -72,72 0,41 32,73 72,73 41,0 73,-32 73,-73 0,-40 -32,-72 -73,-72zm0 120c-26,0 -47,-22 -47,-48 0,-26 21,-47 47,-47 26,0 48,21 48,47 0,26 -22,48 -48,48zm93 -123c0,9 -8,17 -17,17 -9,0 -17,-8 -17,-17 0,-10 8,-17 17,-17 9,0 17,7 17,17zm48 17c-1,-23 -6,-43 -23,-60 -16,-16 -36,-21 -59,-23 -24,-1 -94,-1 -117,0 -23,1 -43,7 -60,23 -16,17 -21,37 -23,60 -1,23 -1,93 0,117 2,22 7,43 23,59 17,17 37,22 60,23 23,1 93,1 117,0 23,-1 43,-6 59,-23 17,-16 22,-37 23,-59 2,-24 2,-94 0,-117zm-30 142c-5,12 -15,22 -27,27 -19,7 -63,6 -84,6 -20,0 -65,1 -83,-6 -13,-5 -22,-15 -27,-27 -8,-19 -6,-63 -6,-84 0,-20 -2,-65 6,-83 5,-13 14,-22 27,-27 18,-8 63,-6 83,-6 21,0 65,-2 84,6 12,5 22,14 27,27 7,18 6,63 6,83 0,21 1,65 -6,84z"/>
    <path id="linkedin.svg_99" class="fil1" d="M2747 2945l-245 0c-11,0 -20,10 -20,21l0 244c0,12 9,21 20,21l245 0c11,0 20,-9 20,-21l0 -244c0,-11 -9,-21 -20,-21zm-179 245l-42 0 0 -136 42 0 0 136 0 0zm-21 -155c-14,0 -25,-11 -25,-24 0,-14 11,-25 25,-25 13,0 24,11 24,25 0,13 -11,24 -24,24zm180 155l-43 0 0 -66c0,-16 0,-36 -22,-36 -22,0 -25,17 -25,35l0 67 -42 0 0 -136 40 0 0 19 1 0c5,-11 19,-22 40,-22 43,0 51,28 51,65l0 74z"/>
   </g>
   <g>
    <path id="facebook.svg_100" class="fil1" d="M3136 3088c0,-78 -64,-142 -142,-142 -79,0 -142,64 -142,142 0,71 52,130 120,140l0 -99 -36 0 0 -41 36 0 0 -31c0,-36 21,-55 53,-55 16,0 32,3 32,3l0 34 -18 0c-18,0 -23,11 -23,23l0 26 39 0 -6 41 -33 0 0 99c68,-10 120,-69 120,-140z"/>
    <path id="twitter.svg_101" class="fil1" d="M3428 3035c0,3 0,6 0,9 0,82 -62,177 -177,177 -36,0 -69,-10 -96,-28 5,1 9,1 15,1 29,0 56,-10 77,-27 -27,0 -50,-18 -58,-43 4,1 8,1 12,1 5,0 11,-1 16,-2 -29,-6 -50,-31 -50,-61l0 -1c8,4 18,7 28,8 -17,-12 -28,-31 -28,-52 0,-12 3,-23 9,-32 31,38 77,63 129,65 -1,-4 -2,-9 -2,-14 0,-34 28,-62 63,-62 18,0 34,7 45,19 15,-2 28,-8 40,-15 -5,15 -14,27 -27,35 12,-2 24,-5 36,-10 -9,12 -20,23 -32,32l0 0z"/>
    <path id="instagram.svg_102" class="fil1" d="M3661 3016c-41,0 -73,32 -73,72 0,41 32,73 73,73 40,0 72,-32 72,-73 0,-40 -32,-72 -72,-72zm0 120c-26,0 -48,-22 -48,-48 0,-26 22,-47 48,-47 26,0 47,21 47,47 0,26 -21,48 -47,48zm92 -123c0,9 -7,17 -17,17 -9,0 -17,-8 -17,-17 0,-10 8,-17 17,-17 10,0 17,7 17,17zm49 17c-2,-23 -7,-43 -23,-60 -17,-16 -37,-21 -60,-23 -23,-1 -93,-1 -117,0 -23,2 -43,7 -59,23 -17,17 -22,37 -23,60 -2,23 -2,93 0,117 1,22 6,43 23,59 16,17 36,22 59,23 24,1 94,1 117,0 23,-1 43,-6 60,-23 16,-16 21,-37 23,-59 1,-24 1,-94 0,-117zm-31 142c-5,12 -14,22 -27,27 -18,7 -63,6 -83,6 -21,0 -65,1 -84,-6 -12,-5 -22,-15 -27,-27 -7,-19 -6,-63 -6,-84 0,-20 -1,-65 6,-83 5,-13 15,-22 27,-27 19,-8 63,-6 84,-6 20,0 65,-2 83,6 13,5 22,14 27,27 8,18 6,63 6,83 0,21 2,65 -6,84z"/>
    <path id="linkedin.svg_103" class="fil1" d="M4141 2946l-245 0c-11,0 -20,10 -20,21l0 244c0,12 9,21 20,21l245 0c11,0 21,-9 21,-21l0 -244c0,-11 -10,-21 -21,-21zm-179 245l-42 0 0 -136 42 0 0 136 0 0zm-21 -155c-13,0 -24,-11 -24,-24 0,-14 11,-25 24,-25 14,0 25,11 25,25 0,13 -11,24 -25,24zm180 155l-42 0 0 -66c0,-16 -1,-36 -22,-36 -22,0 -26,17 -26,35l0 67 -42 0 0 -136 41 0 0 19 0 0c6,-11 20,-22 40,-22 43,0 51,28 51,65l0 74z"/>
   </g>
  </g>
  <g id="_404585608">
   <g>
    <path id="facebook.svg_104" class="fil1" d="M347 3449c0,-78 -64,-141 -142,-141 -78,0 -142,63 -142,141 0,71 52,130 120,141l0 -100 -36 0 0 -41 36 0 0 -31c0,-35 21,-55 53,-55 16,0 32,3 32,3l0 35 -18 0c-17,0 -23,11 -23,22l0 26 40 0 -7 41 -33 0 0 100c68,-11 120,-70 120,-141z"/>
    <path id="twitter.svg_105" class="fil1" d="M640 3397c0,2 0,5 0,8 0,82 -63,178 -178,178 -36,0 -68,-11 -96,-28 5,0 10,0 15,0 29,0 56,-10 78,-26 -28,-1 -51,-19 -59,-44 4,1 8,1 12,1 6,0 11,-1 16,-2 -28,-6 -50,-31 -50,-61l0 -1c9,5 18,8 29,8 -17,-11 -28,-30 -28,-52 0,-12 3,-22 8,-32 31,38 77,63 129,66 -1,-5 -1,-10 -1,-15 0,-34 27,-62 62,-62 18,0 34,7 46,20 14,-3 27,-8 39,-15 -4,14 -14,26 -27,34 12,-1 25,-5 36,-10 -9,13 -19,24 -31,33l0 0z"/>
    <path id="instagram.svg_106" class="fil1" d="M872 3377c-40,0 -73,32 -73,73 0,40 33,72 73,72 40,0 73,-32 73,-72 0,-41 -33,-73 -73,-73zm0 120c-26,0 -47,-21 -47,-47 0,-27 21,-48 47,-48 26,0 47,21 47,48 0,26 -21,47 -47,47zm93 -123c0,9 -8,17 -17,17 -10,0 -17,-8 -17,-17 0,-10 7,-17 17,-17 9,0 17,7 17,17zm48 17c-1,-23 -6,-43 -23,-59 -17,-17 -37,-22 -60,-23 -23,-2 -93,-2 -117,0 -22,1 -42,6 -59,23 -17,16 -22,36 -23,59 -1,23 -1,94 0,117 1,23 6,43 23,59 17,17 37,22 59,23 24,2 94,2 117,0 23,-1 43,-6 60,-23 16,-16 22,-36 23,-59 1,-23 1,-94 0,-117zm-30 142c-5,13 -15,22 -27,27 -19,7 -63,6 -84,6 -21,0 -65,1 -84,-6 -12,-5 -22,-14 -27,-27 -7,-19 -5,-63 -5,-83 0,-21 -2,-66 5,-84 5,-13 15,-22 27,-27 19,-7 63,-6 84,-6 21,0 65,-1 84,6 12,5 22,14 27,27 7,19 5,63 5,84 0,20 2,65 -5,83z"/>
    <path id="linkedin.svg_107" class="fil1" d="M1353 3308l-245 0c-12,0 -21,9 -21,20l0 245c0,11 9,20 21,20l245 0c11,0 20,-9 20,-20l0 -245c0,-11 -9,-20 -20,-20zm-179 244l-43 0 0 -136 43 0 0 136 0 0zm-22 -154c-13,0 -24,-11 -24,-25 0,-13 11,-25 24,-25 14,0 25,12 25,25 0,14 -11,25 -25,25zm180 154l-42 0 0 -66c0,-16 0,-36 -22,-36 -22,0 -25,17 -25,35l0 67 -43 0 0 -136 41 0 0 19 0 0c6,-11 20,-22 40,-22 43,0 51,28 51,65l0 74z"/>
   </g>
   <g>
    <path id="facebook.svg_108" class="fil1" d="M1741 3450c0,-78 -63,-141 -142,-141 -78,0 -141,63 -141,141 0,71 51,130 119,141l0 -100 -36 0 0 -41 36 0 0 -31c0,-35 21,-55 54,-55 15,0 32,3 32,3l0 35 -18 0c-18,0 -23,11 -23,22l0 26 39 0 -6 41 -33 0 0 100c67,-11 119,-70 119,-141z"/>
    <path id="twitter.svg_109" class="fil1" d="M2034 3398c0,2 0,5 0,8 0,82 -63,178 -178,178 -35,0 -68,-11 -96,-28 5,0 10,0 15,0 30,0 56,-10 78,-26 -28,-1 -51,-19 -59,-44 4,1 8,1 12,1 6,0 11,-1 17,-2 -29,-6 -50,-31 -50,-61l0 -1c8,5 18,8 28,8 -17,-11 -28,-30 -28,-52 0,-12 3,-22 8,-32 31,38 77,63 129,66 -1,-5 -1,-10 -1,-15 0,-34 28,-62 62,-62 18,0 35,7 46,20 14,-3 28,-8 40,-15 -5,14 -15,26 -28,34 13,-1 25,-5 36,-10 -8,13 -19,24 -31,33l0 0z"/>
    <path id="instagram.svg_110" class="fil1" d="M2266 3378c-40,0 -72,32 -72,73 0,40 32,72 72,72 41,0 73,-32 73,-72 0,-41 -32,-73 -73,-73zm0 120c-26,0 -47,-21 -47,-47 0,-27 21,-48 47,-48 26,0 48,21 48,48 0,26 -22,47 -48,47zm93 -123c0,9 -8,17 -17,17 -9,0 -17,-8 -17,-17 0,-10 8,-17 17,-17 9,0 17,7 17,17zm48 17c-1,-23 -6,-43 -23,-59 -16,-17 -37,-22 -59,-23 -24,-2 -94,-2 -117,0 -23,1 -43,6 -60,23 -16,16 -21,36 -23,59 -1,23 -1,94 0,117 1,23 7,43 23,59 17,17 37,22 60,23 23,2 93,2 117,0 22,-1 43,-6 59,-23 17,-16 22,-36 23,-59 1,-23 1,-94 0,-117zm-30 142c-5,13 -15,22 -27,27 -19,7 -63,6 -84,6 -20,0 -65,1 -83,-6 -13,-5 -22,-14 -27,-27 -8,-19 -6,-63 -6,-83 0,-21 -2,-65 6,-84 5,-13 14,-22 27,-27 18,-7 63,-6 83,-6 21,0 65,-1 84,6 12,5 22,14 27,27 7,19 6,63 6,84 0,20 1,65 -6,83z"/>
    <path id="linkedin.svg_111" class="fil1" d="M2747 3309l-245 0c-11,0 -20,9 -20,20l0 245c0,11 9,20 20,20l245 0c11,0 20,-9 20,-20l0 -245c0,-11 -9,-20 -20,-20zm-179 245l-42 0 0 -137 42 0 0 137 0 0zm-21 -155c-14,0 -25,-11 -25,-25 0,-13 11,-25 25,-25 13,0 24,12 24,25 0,14 -11,25 -24,25zm180 155l-43 0 0 -67c0,-16 0,-36 -22,-36 -22,0 -25,17 -25,35l0 68 -42 0 0 -137 40 0 0 19 1 0c5,-11 19,-22 40,-22 43,0 51,28 51,65l0 75z"/>
   </g>
   <g>
    <path id="facebook.svg_112" class="fil1" d="M3135 3451c0,-78 -63,-141 -141,-141 -79,0 -142,63 -142,141 0,71 52,130 120,141l0 -100 -36 0 0 -41 36 0 0 -31c0,-35 21,-55 53,-55 16,0 32,3 32,3l0 35 -18 0c-18,0 -23,11 -23,22l0 26 39 0 -6 41 -33 0 0 100c68,-11 119,-70 119,-141z"/>
    <path id="twitter.svg_113" class="fil1" d="M3428 3399c0,2 0,5 0,8 0,82 -63,178 -178,178 -35,0 -68,-11 -95,-28 5,0 9,0 15,0 29,0 56,-10 77,-26 -27,-1 -50,-19 -58,-44 4,1 7,1 12,1 5,0 11,-1 16,-2 -29,-6 -50,-31 -50,-61l0 -1c8,5 18,8 28,8 -17,-11 -28,-30 -28,-52 0,-12 3,-22 9,-32 31,38 77,63 129,66 -1,-5 -2,-10 -2,-15 0,-34 28,-62 63,-62 18,0 34,7 45,20 14,-3 28,-8 40,-15 -5,14 -15,26 -28,34 13,-1 25,-5 36,-10 -8,13 -19,24 -31,33l0 0z"/>
    <path id="instagram.svg_114" class="fil1" d="M3661 3379c-41,0 -73,32 -73,73 0,40 32,72 73,72 40,0 72,-32 72,-72 0,-41 -32,-73 -72,-73zm0 120c-26,0 -48,-21 -48,-47 0,-27 21,-48 48,-48 26,0 47,21 47,48 0,26 -21,47 -47,47zm92 -123c0,9 -7,17 -17,17 -9,0 -17,-8 -17,-17 0,-10 8,-17 17,-17 10,0 17,7 17,17zm48 17c-1,-23 -6,-43 -23,-59 -16,-17 -36,-22 -59,-23 -23,-2 -94,-2 -117,0 -23,1 -43,6 -59,23 -17,16 -22,36 -23,59 -2,23 -2,94 0,117 1,23 6,43 23,59 16,17 36,22 59,23 23,2 94,2 117,0 23,-1 43,-6 59,-23 17,-16 22,-36 23,-59 2,-23 2,-94 0,-117zm-30 142c-5,13 -14,22 -27,27 -18,8 -63,6 -83,6 -21,0 -65,1 -84,-6 -12,-5 -22,-14 -27,-27 -7,-19 -6,-63 -6,-83 0,-21 -1,-65 6,-84 5,-12 14,-22 27,-27 19,-7 63,-6 84,-6 20,0 65,-1 83,6 13,5 22,14 27,27 8,19 6,63 6,84 0,20 2,65 -6,83z"/>
    <path id="linkedin.svg_115" class="fil1" d="M4141 3310l-245 0c-11,0 -20,9 -20,20l0 245c0,11 9,20 20,20l245 0c11,0 21,-9 21,-20l0 -245c0,-11 -10,-20 -21,-20zm-179 245l-42 0 0 -137 42 0 0 137 0 0zm-21 -155c-14,0 -25,-11 -25,-25 0,-13 11,-25 25,-25 14,0 25,12 25,25 0,14 -11,25 -25,25zm180 155l-42 0 0 -67c0,-16 -1,-36 -22,-36 -22,0 -26,17 -26,35l0 68 -42 0 0 -137 40 0 0 19 1 0c6,-11 20,-22 40,-22 43,0 51,28 51,65l0 75z"/>
   </g>
  </g>
  <g id="_404582752">
   <g>
    <path id="facebook.svg_116" class="fil1" d="M354 3811c0,-79 -63,-142 -142,-142 -78,0 -141,63 -141,142 0,71 51,129 119,140l0 -99 -36 0 0 -41 36 0 0 -31c0,-36 21,-56 54,-56 15,0 31,3 31,3l0 35 -17 0c-18,0 -24,11 -24,22l0 27 40 0 -6 41 -34 0 0 99c68,-11 120,-69 120,-140z"/>
    <path id="twitter.svg_117" class="fil1" d="M647 3758c0,3 0,5 0,8 0,83 -63,178 -178,178 -35,0 -68,-10 -96,-28 5,0 10,1 15,1 29,0 56,-10 78,-27 -28,-1 -51,-19 -59,-43 4,0 8,1 12,1 6,0 11,-1 17,-3 -29,-5 -50,-31 -50,-61l0 -1c8,5 18,8 28,8 -17,-11 -28,-30 -28,-52 0,-11 3,-22 8,-31 31,38 77,62 129,65 -1,-5 -1,-9 -1,-14 0,-35 28,-63 62,-63 18,0 35,8 46,20 14,-3 28,-8 40,-15 -5,14 -15,27 -28,34 13,-1 25,-5 36,-9 -8,12 -19,23 -31,32l0 0z"/>
    <path id="instagram.svg_118" class="fil1" d="M879 3738c-40,0 -73,33 -73,73 0,40 33,73 73,73 40,0 73,-33 73,-73 0,-40 -33,-73 -73,-73zm0 120c-26,0 -47,-21 -47,-47 0,-26 21,-47 47,-47 26,0 47,21 47,47 0,26 -21,47 -47,47zm93 -123c0,10 -8,17 -17,17 -10,0 -17,-8 -17,-17 0,-9 8,-17 17,-17 9,0 17,8 17,17zm48 17c-1,-22 -6,-43 -23,-59 -16,-17 -37,-22 -59,-23 -24,-1 -94,-1 -117,0 -23,1 -43,6 -60,23 -16,16 -22,37 -23,59 -1,24 -1,94 0,117 1,23 7,43 23,60 17,16 37,22 60,23 23,1 93,1 117,0 22,-1 43,-7 59,-23 17,-17 22,-37 23,-60 1,-23 1,-93 0,-117zm-30 142c-5,13 -15,22 -27,27 -19,8 -63,6 -84,6 -20,0 -65,2 -83,-6 -13,-5 -22,-14 -27,-27 -8,-18 -6,-63 -6,-83 0,-21 -2,-65 6,-84 5,-12 14,-22 27,-27 18,-7 63,-5 83,-5 21,0 65,-2 84,5 12,5 22,15 27,27 7,19 5,63 5,84 0,20 2,65 -5,83z"/>
    <path id="linkedin.svg_119" class="fil1" d="M1360 3669l-245 0c-11,0 -20,9 -20,21l0 244c0,11 9,21 20,21l245 0c11,0 20,-10 20,-21l0 -244c0,-12 -9,-21 -20,-21zm-179 245l-42 0 0 -136 42 0 0 136 0 0zm-21 -155c-14,0 -25,-11 -25,-25 0,-13 11,-24 25,-24 13,0 24,11 24,24 0,14 -11,25 -24,25zm180 155l-43 0 0 -66c0,-16 0,-37 -22,-37 -22,0 -25,18 -25,35l0 68 -43 0 0 -136 41 0 0 18 1 0c5,-11 19,-22 40,-22 43,0 51,28 51,65l0 75z"/>
   </g>
   <g>
    <path id="facebook.svg_120" class="fil1" d="M1748 3812c0,-79 -63,-142 -141,-142 -79,0 -142,63 -142,142 0,71 52,129 119,140l0 -99 -36 0 0 -41 36 0 0 -31c0,-36 22,-56 54,-56 16,0 32,3 32,3l0 35 -18 0c-18,0 -23,11 -23,22l0 27 39 0 -6 41 -33 0 0 99c68,-11 119,-69 119,-140z"/>
    <path id="twitter.svg_121" class="fil1" d="M2041 3759c0,3 0,5 0,8 0,83 -63,178 -178,178 -35,0 -68,-10 -96,-28 5,0 10,1 16,1 29,0 56,-10 77,-27 -27,-1 -50,-19 -58,-43 4,0 7,1 12,1 5,0 11,-1 16,-3 -29,-5 -50,-31 -50,-61l0 -1c8,5 18,8 28,8 -17,-11 -28,-30 -28,-52 0,-11 3,-22 9,-31 30,38 77,62 129,65 -1,-5 -2,-9 -2,-14 0,-35 28,-63 63,-63 18,0 34,8 45,20 14,-3 28,-8 40,-15 -5,14 -15,27 -28,34 13,-1 25,-5 36,-9 -8,12 -19,23 -31,32l0 0z"/>
    <path id="instagram.svg_122" class="fil1" d="M2274 3739c-41,0 -73,33 -73,73 0,40 32,73 73,73 40,0 72,-33 72,-73 0,-40 -32,-73 -72,-73zm0 120c-26,0 -48,-21 -48,-47 0,-26 21,-47 48,-47 26,0 47,21 47,47 0,26 -21,47 -47,47zm92 -123c0,10 -7,17 -17,17 -9,0 -17,-8 -17,-17 0,-9 8,-17 17,-17 10,0 17,8 17,17zm48 17c-1,-22 -6,-43 -23,-59 -16,-17 -36,-22 -59,-23 -23,-1 -94,-1 -117,0 -23,1 -43,6 -59,23 -17,16 -22,37 -23,59 -2,24 -2,94 0,117 1,23 6,43 23,60 16,16 36,22 59,23 23,1 94,1 117,0 23,-1 43,-7 59,-23 17,-17 22,-37 23,-60 2,-23 2,-93 0,-117zm-30 142c-5,13 -14,22 -27,27 -19,8 -63,6 -83,6 -21,0 -65,2 -84,-6 -12,-5 -22,-14 -27,-27 -7,-18 -6,-63 -6,-83 0,-21 -1,-65 6,-84 5,-12 14,-22 27,-27 19,-7 63,-5 84,-5 20,0 65,-2 83,5 13,5 22,15 27,27 8,19 6,63 6,84 0,20 2,65 -6,83z"/>
    <path id="linkedin.svg_123" class="fil1" d="M2754 3670l-245 0c-11,0 -20,9 -20,21l0 244c0,11 9,21 20,21l245 0c11,0 20,-10 20,-21l0 -244c0,-12 -9,-21 -20,-21zm-179 245l-42 0 0 -136 42 0 0 136 0 0zm-21 -155c-14,0 -25,-11 -25,-25 0,-13 11,-24 25,-24 14,0 25,11 25,24 0,14 -11,25 -25,25zm180 155l-42 0 0 -66c0,-16 -1,-37 -22,-37 -23,0 -26,18 -26,35l0 68 -42 0 0 -136 40 0 0 18 1 0c6,-11 19,-22 40,-22 43,0 51,28 51,65l0 75z"/>
   </g>
   <g>
    <path id="facebook.svg_124" class="fil1" d="M3143 3813c0,-79 -64,-142 -142,-142 -78,0 -142,63 -142,142 0,71 52,129 120,140l0 -99 -36 0 0 -41 36 0 0 -31c0,-36 21,-56 53,-56 16,0 32,3 32,3l0 35 -18 0c-17,0 -23,11 -23,22l0 27 39 0 -6 41 -33 0 0 99c68,-11 120,-69 120,-140z"/>
    <path id="twitter.svg_125" class="fil1" d="M3435 3760c1,3 1,5 1,8 0,83 -63,178 -178,178 -36,0 -69,-10 -96,-28 5,0 10,1 15,1 29,0 56,-10 77,-27 -27,-1 -50,-19 -58,-43 4,0 8,1 12,1 5,0 11,-1 16,-3 -28,-5 -50,-31 -50,-61l0 -1c8,5 18,8 28,8 -16,-11 -27,-30 -27,-52 0,-11 3,-22 8,-31 31,38 77,62 129,65 -1,-5 -2,-9 -2,-14 0,-35 28,-63 63,-63 18,0 34,8 46,20 14,-3 27,-8 39,-15 -4,14 -14,27 -27,34 12,-1 25,-4 36,-9 -9,12 -19,23 -32,32l0 0z"/>
    <path id="instagram.svg_126" class="fil1" d="M3668 3740c-40,0 -73,33 -73,73 0,40 33,73 73,73 40,0 73,-33 73,-73 0,-40 -33,-73 -73,-73zm0 120c-26,0 -47,-21 -47,-47 0,-26 21,-47 47,-47 26,0 47,21 47,47 0,26 -21,47 -47,47zm92 -123c0,10 -7,17 -16,17 -10,0 -17,-7 -17,-17 0,-9 7,-17 17,-17 9,0 16,8 16,17zm49 17c-1,-22 -7,-42 -23,-59 -17,-17 -37,-22 -60,-23 -23,-1 -93,-1 -117,0 -22,1 -43,6 -59,23 -17,16 -22,37 -23,59 -1,24 -1,94 0,117 1,23 6,43 23,60 16,16 37,22 59,23 24,1 94,1 117,0 23,-1 43,-7 60,-23 16,-17 22,-37 23,-60 1,-23 1,-93 0,-117zm-31 142c-5,13 -14,22 -27,27 -18,8 -63,6 -83,6 -21,0 -65,2 -84,-6 -12,-5 -22,-14 -27,-27 -7,-18 -5,-63 -5,-83 0,-21 -2,-65 5,-84 5,-12 15,-22 27,-27 19,-7 63,-5 84,-5 20,0 65,-2 83,5 13,5 22,15 27,27 8,19 6,63 6,84 0,20 2,65 -6,83z"/>
    <path id="linkedin.svg_127" class="fil1" d="M4148 3671l-245 0c-11,0 -20,9 -20,21l0 244c0,11 9,21 20,21l245 0c12,0 21,-10 21,-21l0 -244c0,-12 -9,-21 -21,-21zm-179 245l-42 0 0 -136 43 0 0 136 -1 0zm-21 -155c-13,0 -24,-11 -24,-25 0,-13 11,-24 24,-24 14,0 25,11 25,24 0,14 -11,25 -25,25zm180 155l-42 0 0 -66c0,-16 0,-37 -22,-37 -22,0 -26,18 -26,35l0 68 -42 0 0 -136 41 0 0 18 0 0c6,-11 20,-22 40,-22 43,0 51,28 51,65l0 75z"/>
   </g>
  </g>
  <g id="_404580664">
   <g>
    <path id="facebook.svg_128" class="fil1" d="M354 4174c0,-78 -63,-142 -142,-142 -78,0 -142,64 -142,142 0,71 52,129 120,140l0 -99 -36 0 0 -41 36 0 0 -31c0,-36 21,-55 54,-55 15,0 31,2 31,2l0 35 -18 0c-17,0 -23,11 -23,22l0 27 40 0 -7 41 -33 0 0 99c68,-11 120,-69 120,-140z"/>
    <path id="twitter.svg_129" class="fil1" d="M647 4121c0,3 0,6 0,8 0,83 -63,178 -178,178 -35,0 -68,-10 -96,-28 5,1 10,1 15,1 29,0 56,-10 78,-27 -28,0 -51,-18 -59,-43 4,0 8,1 12,1 6,0 11,-1 17,-2 -29,-6 -51,-31 -51,-62l0 0c9,4 18,7 29,8 -17,-12 -28,-31 -28,-53 0,-11 3,-22 8,-31 31,38 77,63 129,65 -1,-4 -1,-9 -1,-14 0,-34 28,-63 62,-63 18,0 34,8 46,20 14,-2 27,-8 39,-15 -4,15 -14,27 -27,35 13,-2 25,-5 36,-10 -9,12 -19,23 -31,32l0 0z"/>
    <path id="instagram.svg_130" class="fil1" d="M879 4101c-40,0 -73,33 -73,73 0,40 33,73 73,73 40,0 73,-33 73,-73 0,-40 -33,-73 -73,-73zm0 120c-26,0 -47,-21 -47,-47 0,-26 21,-47 47,-47 26,0 47,21 47,47 0,26 -21,47 -47,47zm93 -123c0,10 -8,17 -17,17 -10,0 -17,-7 -17,-17 0,-9 7,-17 17,-17 9,0 17,8 17,17zm48 18c-1,-23 -6,-43 -23,-60 -17,-16 -37,-22 -59,-23 -24,-1 -94,-1 -117,0 -23,1 -43,7 -60,23 -17,17 -22,37 -23,60 -1,23 -1,93 0,117 1,22 6,42 23,59 17,17 37,22 60,23 23,1 93,1 117,0 22,-1 42,-6 59,-23 17,-17 22,-37 23,-59 1,-24 1,-94 0,-117zm-30 142c-5,12 -15,22 -27,27 -19,7 -63,5 -84,5 -21,0 -65,2 -84,-5 -12,-5 -21,-15 -26,-27 -8,-19 -6,-63 -6,-84 0,-21 -2,-65 6,-84 4,-12 14,-21 26,-26 19,-8 63,-6 84,-6 21,0 65,-2 84,6 12,4 22,14 27,26 7,19 5,63 5,84 0,21 2,65 -5,84z"/>
    <path id="linkedin.svg_131" class="fil1" d="M1360 4032l-245 0c-11,0 -21,9 -21,21l0 244c0,12 10,21 21,21l245 0c11,0 20,-9 20,-21l0 -244c0,-12 -9,-21 -20,-21zm-179 245l-43 0 0 -136 43 0 0 136 0 0zm-21 -155c-14,0 -25,-11 -25,-24 0,-14 11,-25 25,-25 13,0 24,11 24,25 0,13 -11,24 -24,24zm179 155l-42 0 0 -66c0,-16 0,-36 -22,-36 -22,0 -25,17 -25,35l0 67 -43 0 0 -136 41 0 0 18 1 0c5,-10 19,-22 40,-22 42,0 50,29 50,65l0 75z"/>
   </g>
   <g>
    <path id="facebook.svg_132" class="fil1" d="M1748 4175c0,-78 -63,-142 -141,-142 -79,0 -142,64 -142,142 0,71 52,130 119,140l0 -99 -36 0 0 -41 36 0 0 -31c0,-36 22,-55 54,-55 15,0 32,2 32,2l0 35 -18 0c-18,0 -23,11 -23,22l0 27 39 0 -6 41 -33 0 0 99c67,-10 119,-69 119,-140z"/>
    <path id="twitter.svg_133" class="fil1" d="M2041 4122c0,3 0,6 0,8 0,83 -63,178 -178,178 -35,0 -68,-10 -96,-28 5,1 10,1 15,1 30,0 57,-10 78,-27 -27,0 -50,-18 -58,-43 3,0 7,1 11,1 6,0 12,-1 17,-2 -29,-6 -50,-31 -50,-62l0 0c8,4 18,7 28,8 -17,-12 -28,-31 -28,-53 0,-11 3,-22 9,-31 30,38 77,63 128,65 0,-4 -1,-9 -1,-14 0,-34 28,-62 62,-62 18,0 35,7 46,19 14,-2 28,-8 40,-15 -5,15 -15,27 -28,35 13,-2 25,-5 36,-10 -8,12 -19,23 -31,32l0 0z"/>
    <path id="instagram.svg_134" class="fil1" d="M2273 4102c-40,0 -72,33 -72,73 0,40 32,73 72,73 41,0 73,-33 73,-73 0,-40 -32,-73 -73,-73zm0 120c-26,0 -47,-21 -47,-47 0,-26 21,-47 47,-47 26,0 48,21 48,47 0,26 -22,47 -48,47zm93 -123c0,10 -8,17 -17,17 -9,0 -17,-7 -17,-17 0,-9 8,-17 17,-17 9,0 17,8 17,17zm48 18c-1,-23 -6,-43 -23,-60 -16,-16 -36,-22 -59,-23 -24,-1 -94,-1 -117,0 -23,1 -43,7 -60,23 -16,17 -21,37 -22,60 -2,23 -2,93 0,117 1,22 6,42 22,59 17,17 37,22 60,23 23,1 93,1 117,0 23,-1 43,-6 59,-23 17,-17 22,-37 23,-59 2,-24 2,-94 0,-117zm-30 142c-5,12 -15,22 -27,27 -19,7 -63,5 -84,5 -20,0 -65,2 -83,-5 -13,-5 -22,-15 -27,-27 -8,-19 -6,-63 -6,-84 0,-21 -2,-65 6,-84 5,-12 14,-21 27,-26 18,-8 63,-6 83,-6 21,0 65,-2 84,6 12,4 22,14 27,26 7,19 6,63 6,84 0,21 1,65 -6,84z"/>
    <path id="linkedin.svg_135" class="fil1" d="M2754 4033l-245 0c-11,0 -20,10 -20,21l0 244c0,12 9,21 20,21l245 0c11,0 20,-9 20,-21l0 -244c0,-12 -9,-21 -20,-21zm-179 245l-42 0 0 -136 42 0 0 136 0 0zm-21 -155c-14,0 -25,-11 -25,-24 0,-14 11,-25 25,-25 13,0 24,11 24,25 0,13 -11,24 -24,24zm180 155l-43 0 0 -66c0,-16 0,-36 -22,-36 -22,0 -25,17 -25,35l0 67 -42 0 0 -136 40 0 0 18 1 0c6,-10 19,-22 40,-22 43,0 51,29 51,65l0 75z"/>
   </g>
   <g>
    <path id="facebook.svg_136" class="fil1" d="M3143 4176c0,-78 -64,-142 -142,-142 -78,0 -142,64 -142,142 0,71 52,130 120,140l0 -99 -36 0 0 -41 36 0 0 -31c0,-36 21,-55 53,-55 16,0 32,2 32,2l0 35 -18 0c-18,0 -23,11 -23,22l0 27 39 0 -6 41 -33 0 0 99c68,-10 120,-69 120,-140z"/>
    <path id="twitter.svg_137" class="fil1" d="M3435 4123c0,3 0,6 0,8 0,83 -62,178 -177,178 -36,0 -69,-10 -96,-28 5,1 10,1 15,1 29,0 56,-10 77,-27 -27,0 -50,-18 -58,-43 4,0 8,1 12,1 5,0 11,-1 16,-2 -28,-6 -50,-31 -50,-62l0 0c8,4 18,7 28,8 -17,-12 -28,-31 -28,-53 0,-11 4,-22 9,-31 31,38 77,63 129,65 -1,-4 -2,-9 -2,-14 0,-34 28,-62 63,-62 18,0 34,7 45,19 15,-2 28,-8 40,-15 -5,15 -14,27 -27,35 12,-2 24,-5 36,-10 -9,12 -20,23 -32,32l0 0z"/>
    <path id="instagram.svg_138" class="fil1" d="M3668 4103c-41,0 -73,33 -73,73 0,40 32,73 73,73 40,0 72,-33 72,-73 0,-40 -32,-73 -72,-73zm0 120c-26,0 -48,-21 -48,-47 0,-26 22,-47 48,-47 26,0 47,21 47,47 0,26 -21,47 -47,47zm92 -123c0,10 -7,17 -17,17 -9,0 -17,-7 -17,-17 0,-9 8,-17 17,-17 10,0 17,8 17,17zm49 18c-2,-23 -7,-43 -23,-60 -17,-16 -37,-22 -60,-23 -23,-1 -93,-1 -117,0 -22,1 -43,7 -59,23 -17,17 -22,37 -23,60 -2,23 -2,93 0,117 1,22 6,42 23,59 16,17 36,22 59,23 24,1 94,1 117,0 23,-1 43,-6 60,-23 16,-17 21,-37 23,-59 1,-24 1,-94 0,-117zm-31 142c-5,12 -14,22 -27,27 -18,7 -63,5 -83,5 -21,0 -65,2 -84,-5 -12,-5 -22,-15 -27,-27 -7,-19 -6,-63 -6,-84 0,-21 -1,-65 6,-84 5,-12 15,-21 27,-26 19,-8 63,-6 84,-6 20,0 65,-2 83,6 13,4 22,14 27,26 8,19 6,63 6,84 0,21 2,65 -6,84z"/>
    <path id="linkedin.svg_139" class="fil1" d="M4148 4034l-245 0c-11,0 -20,10 -20,21l0 244c0,12 9,21 20,21l245 0c11,0 21,-9 21,-21l0 -244c0,-11 -10,-21 -21,-21zm-179 245l-42 0 0 -136 42 0 0 136 0 0zm-21 -155c-13,0 -24,-11 -24,-24 0,-14 11,-25 24,-25 14,0 25,11 25,25 0,13 -11,24 -25,24zm180 155l-42 0 0 -66c0,-16 -1,-36 -22,-36 -22,0 -26,17 -26,35l0 67 -42 0 0 -136 41 0 0 18 0 0c6,-10 20,-22 40,-22 43,0 51,29 51,65l0 75z"/>
   </g>
  </g>
  <g id="_404579080">
   <g>
    <path id="facebook.svg_140" class="fil1" d="M348 4492c0,-78 -63,-141 -142,-141 -78,0 -141,63 -141,141 0,71 51,130 119,141l0 -100 -36 0 0 -41 36 0 0 -31c0,-35 21,-55 54,-55 15,0 32,3 32,3l0 35 -18 0c-18,0 -23,11 -23,22l0 26 39 0 -6 41 -33 0 0 100c67,-11 119,-70 119,-141z"/>
    <path id="twitter.svg_141" class="fil1" d="M641 4440c0,2 0,5 0,8 0,82 -63,178 -178,178 -35,0 -68,-11 -96,-28 5,0 10,0 15,0 29,0 56,-10 78,-26 -28,-1 -51,-19 -59,-44 4,1 8,1 12,1 6,0 11,-1 17,-2 -29,-6 -50,-31 -50,-61l0 -1c8,5 18,8 28,8 -17,-11 -28,-30 -28,-52 0,-12 3,-22 8,-32 31,38 77,63 129,66 -1,-5 -1,-10 -1,-15 0,-34 28,-62 62,-62 18,0 35,7 46,20 14,-3 28,-8 40,-15 -5,14 -15,26 -28,34 13,-1 25,-5 36,-10 -8,13 -19,24 -31,33l0 0z"/>
    <path id="instagram.svg_142" class="fil1" d="M873 4420c-40,0 -72,32 -72,73 0,40 32,72 72,72 40,0 73,-32 73,-72 0,-41 -33,-73 -73,-73zm0 120c-26,0 -47,-21 -47,-47 0,-27 21,-48 47,-48 26,0 48,21 48,48 0,26 -22,47 -48,47zm93 -123c0,9 -8,17 -17,17 -9,0 -17,-8 -17,-17 0,-10 8,-17 17,-17 9,0 17,7 17,17zm48 17c-1,-23 -6,-43 -23,-59 -16,-17 -37,-22 -59,-23 -24,-2 -94,-2 -117,0 -23,1 -43,6 -60,23 -16,16 -22,36 -23,59 -1,23 -1,94 0,117 1,23 7,43 23,59 17,17 37,22 60,23 23,2 93,2 117,0 22,-1 43,-6 59,-23 17,-16 22,-36 23,-59 1,-23 1,-94 0,-117zm-30 142c-5,13 -15,22 -27,27 -19,7 -63,6 -84,6 -20,0 -65,1 -83,-6 -13,-5 -22,-14 -27,-27 -8,-19 -6,-63 -6,-83 0,-21 -2,-66 6,-84 5,-13 14,-22 27,-27 18,-7 63,-6 83,-6 21,0 65,-1 84,6 12,5 22,14 27,27 7,19 6,63 6,84 0,20 1,65 -6,83z"/>
    <path id="linkedin.svg_143" class="fil1" d="M1354 4351l-245 0c-11,0 -20,9 -20,20l0 245c0,11 9,20 20,20l245 0c11,0 20,-9 20,-20l0 -245c0,-11 -9,-20 -20,-20zm-179 244l-42 0 0 -136 42 0 0 136 0 0zm-21 -154c-14,0 -25,-11 -25,-25 0,-13 11,-25 25,-25 13,0 24,12 24,25 0,14 -11,25 -24,25zm180 154l-43 0 0 -66c0,-16 0,-36 -22,-36 -22,0 -25,17 -25,35l0 67 -43 0 0 -136 41 0 0 19 1 0c5,-11 19,-22 40,-22 43,0 51,28 51,65l0 74z"/>
   </g>
   <g>
    <path id="facebook.svg_144" class="fil1" d="M1742 4493c0,-78 -63,-141 -141,-141 -79,0 -142,63 -142,141 0,71 52,130 120,141l0 -100 -37 0 0 -41 37 0 0 -31c0,-35 21,-55 53,-55 16,0 32,3 32,3l0 35 -18 0c-18,0 -23,11 -23,22l0 26 39 0 -6 41 -33 0 0 100c68,-11 119,-70 119,-141z"/>
    <path id="twitter.svg_145" class="fil1" d="M2035 4441c0,2 0,5 0,8 0,82 -63,178 -178,178 -35,0 -68,-11 -96,-28 5,0 10,0 16,0 29,0 56,-10 77,-26 -27,-1 -50,-19 -58,-44 4,1 7,1 12,1 5,0 11,-1 16,-2 -29,-6 -50,-31 -50,-61l0 -1c8,5 18,8 28,8 -17,-11 -28,-30 -28,-52 0,-12 3,-22 9,-32 31,38 77,63 129,66 -1,-5 -2,-10 -2,-15 0,-34 28,-62 63,-62 18,0 34,7 45,20 14,-3 28,-8 40,-15 -5,14 -15,26 -28,34 13,-1 25,-5 36,-10 -8,13 -19,24 -31,33l0 0z"/>
    <path id="instagram.svg_146" class="fil1" d="M2268 4421c-41,0 -73,32 -73,73 0,40 32,72 73,72 40,0 72,-32 72,-72 0,-41 -32,-73 -72,-73zm0 120c-26,0 -48,-21 -48,-47 0,-27 21,-48 48,-48 26,0 47,21 47,48 0,26 -21,47 -47,47zm92 -123c0,9 -7,17 -17,17 -9,0 -17,-8 -17,-17 0,-10 8,-17 17,-17 10,0 17,7 17,17zm48 17c-1,-23 -6,-43 -23,-59 -16,-17 -36,-22 -59,-23 -23,-2 -94,-2 -117,0 -23,1 -43,6 -59,23 -17,16 -22,36 -23,59 -2,23 -2,94 0,117 1,23 6,43 23,59 16,17 36,22 59,23 23,2 94,2 117,0 23,-1 43,-6 59,-23 17,-16 22,-36 23,-59 2,-23 2,-94 0,-117zm-30 142c-5,13 -14,22 -27,27 -19,7 -63,6 -83,6 -21,0 -65,1 -84,-6 -12,-5 -22,-14 -27,-27 -7,-19 -6,-63 -6,-83 0,-21 -1,-65 6,-84 5,-13 14,-22 27,-27 19,-7 63,-6 84,-6 20,0 65,-1 83,6 13,5 22,14 27,27 8,19 6,63 6,84 0,20 2,65 -6,83z"/>
    <path id="linkedin.svg_147" class="fil1" d="M2748 4352l-245 0c-11,0 -20,9 -20,20l0 245c0,11 9,20 20,20l245 0c11,0 20,-9 20,-20l0 -245c0,-11 -9,-20 -20,-20zm-179 245l-42 0 0 -137 42 0 0 137 0 0zm-21 -155c-14,0 -25,-11 -25,-25 0,-13 11,-25 25,-25 14,0 25,12 25,25 0,14 -11,25 -25,25zm180 155l-42 0 0 -67c0,-16 -1,-36 -22,-36 -23,0 -26,17 -26,35l0 68 -42 0 0 -137 40 0 0 19 1 0c6,-11 19,-22 40,-22 43,0 51,28 51,65l0 75z"/>
   </g>
   <g>
    <path id="facebook.svg_148" class="fil1" d="M3137 4494c0,-78 -64,-141 -142,-141 -78,0 -142,63 -142,141 0,71 52,130 120,141l0 -100 -36 0 0 -41 36 0 0 -31c0,-35 21,-55 53,-55 16,0 32,3 32,3l0 35 -18 0c-17,0 -23,11 -23,22l0 26 39 0 -6 41 -33 0 0 100c68,-11 120,-70 120,-141z"/>
    <path id="twitter.svg_149" class="fil1" d="M3429 4442c1,2 1,5 1,8 0,82 -63,178 -178,178 -36,0 -69,-11 -96,-28 5,0 10,0 15,0 29,0 56,-10 77,-26 -27,-1 -50,-19 -58,-44 4,1 8,1 12,1 5,0 11,-1 16,-2 -28,-6 -50,-31 -50,-61l0 -1c8,5 18,8 28,8 -16,-11 -27,-30 -27,-52 0,-12 3,-22 8,-32 31,38 77,63 129,66 -1,-5 -2,-10 -2,-15 0,-34 28,-62 63,-62 18,0 34,7 46,20 14,-3 27,-8 39,-15 -4,14 -14,26 -27,34 12,-1 25,-5 36,-10 -9,13 -19,24 -32,33l0 0z"/>
    <path id="instagram.svg_150" class="fil1" d="M3662 4422c-40,0 -73,32 -73,73 0,40 33,72 73,72 40,0 73,-32 73,-72 0,-41 -33,-73 -73,-73zm0 120c-26,0 -47,-21 -47,-47 0,-27 21,-48 47,-48 26,0 47,21 47,48 0,26 -21,47 -47,47zm93 -123c0,9 -8,17 -17,17 -10,0 -17,-8 -17,-17 0,-10 7,-17 17,-17 9,0 17,7 17,17zm48 17c-1,-23 -7,-43 -23,-59 -17,-17 -37,-22 -60,-23 -23,-2 -93,-2 -117,0 -22,1 -42,6 -59,23 -17,16 -22,36 -23,59 -1,23 -1,94 0,117 1,23 6,43 23,59 17,17 37,22 59,23 24,2 94,2 117,0 23,-1 43,-6 60,-23 16,-16 22,-36 23,-59 1,-23 1,-94 0,-117zm-31 142c-5,13 -14,22 -27,27 -18,8 -63,6 -83,6 -21,0 -65,1 -84,-6 -12,-5 -22,-14 -27,-27 -7,-19 -5,-63 -5,-83 0,-21 -2,-65 5,-84 5,-12 15,-22 27,-27 19,-7 63,-6 84,-6 20,0 65,-1 83,6 13,5 22,14 27,27 8,19 6,63 6,84 0,20 2,65 -6,83z"/>
    <path id="linkedin.svg_151" class="fil1" d="M4142 4353l-245 0c-11,0 -20,9 -20,20l0 245c0,11 9,20 20,20l245 0c12,0 21,-9 21,-20l0 -245c0,-11 -9,-20 -21,-20zm-179 245l-42 0 0 -137 43 0 0 137 -1 0zm-21 -155c-13,0 -24,-11 -24,-25 0,-13 11,-25 24,-25 14,0 25,12 25,25 0,14 -11,25 -25,25zm180 155l-42 0 0 -67c0,-16 0,-36 -22,-36 -22,0 -26,17 -26,35l0 68 -42 0 0 -137 41 0 0 19 0 0c6,-11 20,-22 40,-22 43,0 51,28 51,65l0 75z"/>
   </g>
  </g>
  <g id="_404577424">
   <g>
    <path id="facebook.svg_152" class="fil1" d="M348 4856c0,-79 -63,-142 -142,-142 -78,0 -142,63 -142,142 0,71 52,129 120,140l0 -99 -36 0 0 -41 36 0 0 -32c0,-35 21,-55 54,-55 15,0 31,3 31,3l0 35 -17 0c-18,0 -24,11 -24,22l0 27 40 0 -7 41 -33 0 0 99c68,-11 120,-69 120,-140z"/>
    <path id="twitter.svg_153" class="fil1" d="M641 4803c0,3 0,5 0,8 0,83 -63,178 -178,178 -35,0 -68,-10 -96,-28 5,0 10,1 15,1 29,0 56,-10 78,-27 -28,-1 -51,-19 -59,-43 4,0 8,0 12,0 6,0 11,0 17,-2 -29,-5 -51,-31 -51,-61l0 -1c9,5 18,8 29,8 -17,-11 -28,-30 -28,-52 0,-11 3,-22 8,-31 31,38 77,62 129,65 -1,-5 -1,-9 -1,-14 0,-35 28,-63 62,-63 18,0 34,8 46,20 14,-3 28,-8 40,-15 -5,14 -15,27 -28,34 13,-1 25,-5 36,-9 -8,12 -19,23 -31,32l0 0z"/>
    <path id="instagram.svg_154" class="fil1" d="M873 4783c-40,0 -73,33 -73,73 0,40 33,72 73,72 40,0 73,-32 73,-72 0,-40 -33,-73 -73,-73zm0 120c-26,0 -47,-21 -47,-47 0,-26 21,-48 47,-48 26,0 47,22 47,48 0,26 -21,47 -47,47zm93 -123c0,9 -8,17 -17,17 -10,0 -17,-8 -17,-17 0,-9 7,-17 17,-17 9,0 17,8 17,17zm48 17c-1,-22 -6,-43 -23,-59 -17,-17 -37,-22 -59,-23 -24,-1 -94,-1 -117,0 -23,1 -43,6 -60,23 -17,16 -22,36 -23,59 -1,24 -1,94 0,117 1,23 6,43 23,60 17,16 37,21 60,23 23,1 93,1 117,0 22,-1 42,-7 59,-23 17,-17 22,-37 23,-60 1,-23 1,-93 0,-117zm-30 142c-5,13 -15,22 -27,27 -19,8 -63,6 -84,6 -21,0 -65,2 -83,-6 -13,-5 -22,-14 -27,-27 -8,-18 -6,-63 -6,-83 0,-21 -2,-65 6,-84 4,-12 14,-22 27,-27 18,-7 62,-6 83,-6 21,0 65,-1 84,6 12,5 22,15 27,27 7,19 5,63 5,84 0,20 2,65 -5,83z"/>
    <path id="linkedin.svg_155" class="fil1" d="M1354 4714l-245 0c-11,0 -21,9 -21,21l0 244c0,11 10,21 21,21l245 0c11,0 20,-10 20,-21l0 -244c0,-12 -9,-21 -20,-21zm-179 245l-43 0 0 -137 43 0 0 137 0 0zm-21 -155c-14,0 -25,-11 -25,-25 0,-13 11,-24 25,-24 13,0 24,11 24,24 0,14 -11,25 -24,25zm179 155l-42 0 0 -67c0,-15 0,-36 -22,-36 -22,0 -25,18 -25,35l0 68 -43 0 0 -137 41 0 0 19 1 0c5,-11 19,-22 40,-22 43,0 50,28 50,65l0 75z"/>
   </g>
   <g>
    <path id="facebook.svg_156" class="fil1" d="M1742 4857c0,-79 -63,-142 -141,-142 -79,0 -142,63 -142,142 0,71 52,129 119,140l0 -99 -36 0 0 -41 36 0 0 -31c0,-36 22,-56 54,-56 15,0 32,3 32,3l0 35 -18 0c-18,0 -23,11 -23,22l0 27 39 0 -6 41 -33 0 0 99c67,-11 119,-69 119,-140z"/>
    <path id="twitter.svg_157" class="fil1" d="M2035 4804c0,3 0,5 0,8 0,83 -63,178 -178,178 -35,0 -68,-10 -96,-28 5,0 10,1 15,1 30,0 57,-10 78,-27 -27,-1 -50,-19 -58,-43 3,0 7,1 11,1 6,0 12,-1 17,-3 -29,-5 -50,-31 -50,-61l0 -1c8,5 18,8 28,8 -17,-11 -28,-30 -28,-52 0,-11 3,-22 9,-31 30,38 77,62 129,65 -1,-5 -2,-9 -2,-14 0,-35 28,-63 62,-63 18,0 35,8 46,20 14,-3 28,-8 40,-15 -5,14 -15,27 -28,34 13,-1 25,-5 36,-9 -8,12 -19,23 -31,32l0 0z"/>
    <path id="instagram.svg_158" class="fil1" d="M2267 4784c-40,0 -72,33 -72,73 0,40 32,72 72,72 41,0 73,-32 73,-72 0,-40 -32,-73 -73,-73zm0 120c-26,0 -47,-21 -47,-47 0,-26 21,-48 47,-48 27,0 48,22 48,48 0,26 -22,47 -48,47zm93 -123c0,10 -7,17 -17,17 -9,0 -17,-8 -17,-17 0,-9 8,-17 17,-17 10,0 17,8 17,17zm48 17c-1,-22 -6,-43 -23,-59 -16,-17 -36,-22 -59,-23 -23,-1 -94,-1 -117,0 -23,1 -43,6 -60,23 -16,16 -21,36 -22,59 -2,24 -2,94 0,117 1,23 6,43 22,60 17,16 37,21 60,23 23,1 94,1 117,0 23,-1 43,-7 59,-23 17,-17 22,-37 23,-60 2,-23 2,-93 0,-117zm-30 142c-5,13 -14,22 -27,27 -19,8 -63,6 -84,6 -20,0 -65,2 -83,-6 -13,-5 -22,-14 -27,-27 -8,-18 -6,-63 -6,-83 0,-21 -1,-65 6,-84 5,-12 14,-22 27,-27 18,-7 63,-6 83,-6 21,0 65,-1 84,6 12,5 22,15 27,27 7,19 6,63 6,84 0,20 1,65 -6,83z"/>
    <path id="linkedin.svg_159" class="fil1" d="M2748 4715l-245 0c-11,0 -20,9 -20,21l0 244c0,11 9,21 20,21l245 0c11,0 20,-10 20,-21l0 -244c0,-12 -9,-21 -20,-21zm-179 245l-42 0 0 -137 42 0 0 137 0 0zm-21 -155c-14,0 -25,-11 -25,-25 0,-13 11,-24 25,-24 13,0 24,11 24,24 0,14 -11,25 -24,25zm180 155l-43 0 0 -67c0,-15 0,-36 -22,-36 -22,0 -25,18 -25,35l0 68 -42 0 0 -137 40 0 0 19 1 0c6,-11 19,-22 40,-22 43,0 51,28 51,65l0 75z"/>
   </g>
   <g>
    <path id="facebook.svg_160" class="fil1" d="M3137 4858c0,-79 -64,-142 -142,-142 -78,0 -142,63 -142,142 0,71 52,129 120,140l0 -99 -36 0 0 -41 36 0 0 -31c0,-36 21,-56 53,-56 16,0 32,3 32,3l0 35 -18 0c-17,0 -23,11 -23,22l0 27 39 0 -6 41 -33 0 0 99c68,-11 120,-69 120,-140z"/>
    <path id="twitter.svg_161" class="fil1" d="M3429 4805c0,3 0,5 0,8 0,83 -62,178 -177,178 -36,0 -69,-10 -96,-28 5,0 10,1 15,1 29,0 56,-10 77,-27 -27,-1 -50,-19 -58,-43 4,0 8,1 12,1 5,0 11,-1 16,-3 -28,-5 -50,-31 -50,-61l0 -1c8,5 18,8 28,8 -17,-11 -28,-30 -28,-52 0,-11 4,-22 9,-31 31,38 77,62 129,65 -1,-5 -2,-9 -2,-14 0,-35 28,-63 63,-63 18,0 34,8 45,20 15,-3 28,-8 40,-15 -5,14 -14,27 -27,34 12,-1 24,-5 36,-9 -9,12 -20,23 -32,32l0 0z"/>
    <path id="instagram.svg_162" class="fil1" d="M3662 4785c-41,0 -73,33 -73,73 0,40 32,73 73,73 40,0 72,-33 72,-73 0,-40 -32,-73 -72,-73zm0 120c-26,0 -48,-21 -48,-47 0,-26 22,-48 48,-48 26,0 47,22 47,48 0,26 -21,47 -47,47zm92 -123c0,10 -7,17 -17,17 -9,0 -17,-8 -17,-17 0,-9 8,-17 17,-17 10,0 17,8 17,17zm49 17c-2,-22 -7,-43 -23,-59 -17,-17 -37,-22 -60,-23 -23,-1 -93,-1 -117,0 -22,1 -43,6 -59,23 -17,16 -22,37 -23,59 -1,24 -1,94 0,117 1,23 6,43 23,60 16,16 36,21 59,23 24,1 94,1 117,0 23,-1 43,-7 60,-23 16,-17 21,-37 23,-60 1,-23 1,-93 0,-117zm-31 142c-5,13 -14,22 -27,27 -18,8 -63,6 -83,6 -21,0 -65,2 -84,-6 -12,-5 -22,-14 -27,-27 -7,-18 -6,-63 -6,-83 0,-21 -1,-65 6,-84 5,-12 15,-22 27,-27 19,-7 63,-5 84,-5 20,0 65,-2 83,5 13,5 22,15 27,27 8,19 6,63 6,84 0,20 2,65 -6,83z"/>
    <path id="linkedin.svg_163" class="fil1" d="M4142 4716l-245 0c-11,0 -20,9 -20,21l0 244c0,11 9,21 20,21l245 0c12,0 21,-10 21,-21l0 -244c0,-12 -9,-21 -21,-21zm-179 245l-42 0 0 -137 42 0 0 137 0 0zm-21 -155c-13,0 -24,-11 -24,-25 0,-13 11,-24 24,-24 14,0 25,11 25,24 0,14 -11,25 -25,25zm180 155l-42 0 0 -67c0,-15 -1,-36 -22,-36 -22,0 -26,18 -26,35l0 68 -42 0 0 -137 41 0 0 19 0 0c6,-11 20,-22 40,-22 43,0 51,28 51,65l0 75z"/>
   </g>
  </g>
 </g>
</svg>
